<?xml version="1.0" encoding="utf-8"?>
<!-- Generator: Adobe Illustrator 24.2.0, SVG Export Plug-In . SVG Version: 6.00 Build 0)  -->
<!DOCTYPE svg PUBLIC "-//W3C//DTD SVG 1.1//EN" "http://www.w3.org/Graphics/SVG/1.1/DTD/svg11.dtd" [
	<!ENTITY ns_extend "http://ns.adobe.com/Extensibility/1.0/">
	<!ENTITY ns_ai "http://ns.adobe.com/AdobeIllustrator/10.0/">
	<!ENTITY ns_graphs "http://ns.adobe.com/Graphs/1.0/">
	<!ENTITY ns_vars "http://ns.adobe.com/Variables/1.0/">
	<!ENTITY ns_imrep "http://ns.adobe.com/ImageReplacement/1.0/">
	<!ENTITY ns_sfw "http://ns.adobe.com/SaveForWeb/1.0/">
	<!ENTITY ns_custom "http://ns.adobe.com/GenericCustomNamespace/1.0/">
	<!ENTITY ns_adobe_xpath "http://ns.adobe.com/XPath/1.0/">
]>
<svg version="1.1" xmlns:x="&ns_extend;" xmlns:i="&ns_ai;" xmlns:graph="&ns_graphs;"
	 xmlns="http://www.w3.org/2000/svg" xmlns:xlink="http://www.w3.org/1999/xlink" x="0px" y="0px" width="1000px" height="300px"
	 viewBox="0 0 1000 300" enable-background="new 0 0 1000 300" xml:space="preserve">
<metadata>
	<sfw  xmlns="&ns_sfw;">
		<slices></slices>
		<sliceSourceBounds  bottomLeftOrigin="true" height="7796.075" width="5929.38" x="-3780.38" y="474"></sliceSourceBounds>
	</sfw>
</metadata>
<g id="FILL-BACKGROUND">
	<rect fill="#FFFFFF" width="1000" height="300"/>
</g>
<g id="N-DIMENSIONS">
</g>
<g id="N-TEXT">
</g>
<g id="AG-GUIDES">
</g>
<g id="AG-DETAIL-DIAGRAM">
</g>
<g id="AG-DIAGRAM">
	<g id="POLYLINE_147_">
		<g>
			<g>
				
					<line fill="none" stroke="#FB8604" stroke-width="3.25" stroke-linecap="round" stroke-linejoin="round" x1="53.571" y1="250" x2="55.571" y2="250"/>
				
					<line fill="none" stroke="#FB8604" stroke-width="3.25" stroke-linecap="round" stroke-linejoin="round" stroke-dasharray="4.0084,7.0147" x1="62.586" y1="250" x2="940.921" y2="250"/>
				
					<line fill="none" stroke="#FB8604" stroke-width="3.25" stroke-linecap="round" stroke-linejoin="round" x1="944.429" y1="250" x2="946.429" y2="250"/>
			</g>
		</g>
	</g>
</g>
<g id="AG-DETAILS">
</g>
<g id="AG-ANIMALS">
	<g id="POLYLINE_219_">
		
			<path fill="none" stroke="#FB8604" stroke-width="2.75" stroke-linecap="round" stroke-linejoin="round" stroke-miterlimit="10" d="
			M259.911,91.378c-3.789-1.973-7.535-4.224-10.533-7.304c-1.684-1.717-3.129-3.687-4.272-5.803
			c-1.778-3.313-2.913-6.961-3.629-10.643c-0.751-4.04-1.056-8.242-0.339-12.308c0.353-1.879,0.947-3.772,2.103-5.319
			c2.653-3.546,7.422-3.753,11.435-3.005c8.839,1.684,18.172,7.741,23.166,15.243"/>
	</g>
	<g id="POLYLINE_220_">
		
			<path fill="none" stroke="#FB8604" stroke-width="2.75" stroke-linecap="round" stroke-linejoin="round" stroke-miterlimit="10" d="
			M316.79,122.238c-0.198-0.225-0.305-0.492-0.297-0.773c0.007-0.239,0.083-0.46,0.186-0.672c0.243-0.49,0.61-0.92,0.964-1.334
			c1.062-1.195,2.188-2.382,3.492-3.315c0.299-0.207,0.616-0.403,0.953-0.54c0.244-0.099,0.528-0.174,0.781-0.129
			c0.014,0.003,0.028,0.005,0.028,0.005c0.052,0.011,0.095,0.026,0.133,0.042c0.02,0.009,0.03,0.014,0.03,0.014
			c0.02,0.01,0.03,0.015,0.03,0.015c0.02,0.011,0.029,0.016,0.029,0.016c0.019,0.012,0.029,0.018,0.029,0.018
			c0.019,0.013,0.028,0.019,0.028,0.019c0.018,0.013,0.027,0.02,0.027,0.02c0.018,0.014,0.027,0.022,0.027,0.022
			c0.017,0.015,0.026,0.023,0.026,0.023c0.017,0.016,0.026,0.024,0.026,0.024c0.246,0.25,0.356,0.556,0.456,0.88
			c0.148,0.51,0.219,1.057,0.283,1.583c0.056,0.693,0.265,2.336,0.291,3.004c0.017,0.355,0.019,0.718-0.031,1.07
			c-0.045,0.323-0.146,0.662-0.337,0.927c-0.274,0.391-0.713,0.577-1.156,0.664c-0.585,0.115-1.191,0.098-1.782,0.038
			c-0.942-0.105-1.879-0.335-2.756-0.695C317.724,122.937,317.174,122.665,316.79,122.238z"/>
	</g>
	<g id="POLYLINE_221_">
		
			<path fill="none" stroke="#FB8604" stroke-width="2.75" stroke-linecap="round" stroke-linejoin="round" stroke-miterlimit="10" d="
			M336.633,131.638c-0.713-0.839-0.788-2.031-0.552-3.067c0.566-2.51,2.665-4.377,4.27-6.265c0.375-0.437,0.753-0.901,1.069-1.382
			c0.314-0.473,0.627-1.106,0.893-1.61c0.272-0.511,0.628-1.063,1.171-1.296c0.386-0.172,0.816-0.218,1.235-0.215
			c0.679,0.011,1.355,0.155,2,0.365c0.652,0.22,1.3,0.502,1.839,0.936c0.397,0.319,0.723,0.756,0.801,1.254
			c0.062,0.376-0.003,0.755-0.108,1.117c-0.424,1.375-1.531,2.975-2.23,4.235c0,0-1.43,2.555-1.43,2.555
			c-0.884,1.497-1.855,3.105-3.366,4.041c-0.582,0.354-1.249,0.56-1.926,0.62c-0.751,0.066-1.519-0.034-2.223-0.304
			C337.53,132.41,337.013,132.089,336.633,131.638z"/>
	</g>
	<g id="POLYLINE_222_">
		
			<path fill="none" stroke="#FB8604" stroke-width="2.75" stroke-linecap="round" stroke-linejoin="round" stroke-miterlimit="10" d="
			M261.892,121.41c-0.111,1.702,0.136,3.422,0.608,5.056c0.37,1.228,0.869,2.455,1.687,3.457c0.283,0.34,0.614,0.648,0.998,0.869
			c0.43,0.251,0.914,0.398,1.396,0.512c0.996,0.222,2.041,0.406,2.849,1.074c0.406,0.326,0.741,0.738,1.043,1.16
			c1.256,1.776,2.153,4.081,3.536,5.769c0.379,0.448,0.818,0.871,1.363,1.108c0.322,0.141,0.679,0.193,1.028,0.163
			c0.461-0.037,0.907-0.186,1.331-0.362c1.001-0.416,2.067-1.12,3.077-1.514c0.519-0.197,1.131-0.354,1.661-0.119l0.023,0.011
			c0,0,0.023,0.011,0.023,0.011l0.023,0.012l0.023,0.012l0.023,0.013l0.023,0.013l0.023,0.014c0,0,0.022,0.014,0.022,0.014
			c0.324,0.21,0.562,0.522,0.764,0.843c0.342,0.555,0.595,1.177,0.832,1.783c0.539,1.378,1.091,3.199,1.921,4.42
			c0.238,0.348,0.518,0.676,0.86,0.926c0.714,0.538,1.651,0.518,2.485,0.325c1.713-0.398,3.66-1.522,5.252-2.273
			c0.616-0.289,1.259-0.578,1.909-0.778c0.391-0.119,0.797-0.212,1.206-0.223c0.585-0.027,1.136,0.204,1.571,0.575
			c0.663,0.543,1.144,1.367,1.764,1.953c0.311,0.294,0.696,0.505,1.124,0.467c0.3-0.02,0.59-0.121,0.862-0.245
			c0.554-0.257,1.069-0.62,1.563-0.976c1.53-1.11,3.111-2.522,4.939-3.093c1.015-0.311,2.095-0.337,3.148-0.279
			c1.127,0.061,2.592,0.249,3.701,0.059c1.782-0.287,3.237-1.672,4.65-2.697c1.214-0.909,2.516-1.666,4.014-1.983
			c2.541-0.571,5.699-0.38,8.278-0.696c1.263-0.147,2.53-0.408,3.706-0.902c1.751-0.729,3.307-1.904,4.548-3.334"/>
	</g>
	<g id="POLYLINE_223_">
		
			<path fill="none" stroke="#FB8604" stroke-width="2.75" stroke-linecap="round" stroke-linejoin="round" stroke-miterlimit="10" d="
			M343.372,118.074c-1.212-2.671-3.007-5.056-5.077-7.122c-3.073-3.075-6.814-5.44-10.766-7.219
			c-4.574-2.088-10.138-4.097-13.906-7.49c-2.109-1.875-3.852-4.164-5.462-6.471l-3.071-4.516c-0.958-1.386-2.023-2.783-3.17-4.016
			l-2.666-2.82c-0.927-1.012-1.804-2.097-2.459-3.308c-1.098-2.04-1.724-4.633-2.461-6.827c-0.509-1.542-1.105-3.086-1.886-4.512
			c-0.638-1.176-1.429-2.285-2.303-3.298c-1.974-2.279-4.367-4.185-6.912-5.788c-2.568-1.599-5.343-2.94-8.254-3.782
			c-1.766-0.508-3.617-0.813-5.452-0.904c-1.878-0.098-3.8,0.021-5.669,0.212"/>
	</g>
	<g id="POLYLINE_224_">
		
			<path fill="none" stroke="#FB8604" stroke-width="2.75" stroke-linecap="round" stroke-linejoin="round" stroke-miterlimit="10" d="
			M182.567,128.451c0.421,5.705,0.976,11.849,1.812,17.503c0.483,3.188,1.062,6.463,1.919,9.572
			c0.584,2.034,1.243,4.107,2.415,5.887c3.008,4.085,6.356,8.18,9.684,12.009c0.567,0.651,1.098,1.363,1.58,2.079
			c2.069,3.114,3.581,6.604,4.913,10.086c2.093,5.575,3.792,11.655,5.248,17.431c0.921,3.844,1.844,7.83,2.092,11.781
			c0.032,0.612,0.039,1.249,0.003,1.861c-0.046,0.578-0.13,1.298-0.179,1.875c-0.182,2.142-0.232,4.37-0.18,6.519
			c0.083,2.569,0.215,5.209,0.659,7.744c0.193,1.003,0.415,2.033,0.893,2.944c0.16,0.305,0.378,0.605,0.653,0.809
			c0.312,0.227,0.67,0.395,1.05,0.467c0.375,0.073,0.764,0.055,1.135-0.031c0.415-0.095,0.811-0.268,1.18-0.476
			c0.301-0.181,0.61-0.364,0.958-0.438c0.276-0.063,0.583-0.055,0.841,0.035c0.266,0.089,0.482,0.241,0.682,0.43
			c0.385,0.372,0.656,0.848,0.881,1.33c0.91,2.107,2.373,5.614,3.341,7.7c0.193,0.387,0.408,0.778,0.643,1.141
			c0.623,0.968,1.437,1.855,2.486,2.361c0.548,0.276,1.162,0.39,1.762,0.486c1.746,0.281,3.622,0.343,5.39,0.406
			c1.864,0.019,3.945,0.084,5.802-0.04c0.985-0.066,1.992-0.154,2.955-0.377c0.474-0.115,0.956-0.255,1.372-0.515
			c0.464-0.292,0.745-0.795,0.784-1.331c0.04-0.558-0.139-1.105-0.37-1.605c-0.463-0.971-1.143-1.832-1.863-2.626
			c-1.229-1.336-2.66-2.53-4.104-3.628c-1.929-1.454-3.407-3.442-4.45-5.608c-1.255-2.617-1.973-5.622-2.64-8.443
			c-0.549-2.479-0.983-5.052-1.239-7.578c-0.248-2.662-0.27-5.461-0.234-8.135c0.127-5.637,0.441-11.566,1.11-17.163
			c0.485-3.857,1.15-7.792,2.311-11.507c1.176-3.81,3.204-7.744,6.901-9.617c0.851-0.436,1.848-0.754,2.744-1.081
			c1.304-0.441,2.667-0.857,4.026-1.09c0.512-0.083,1.047-0.156,1.566-0.169c0.546-0.001,1.04-0.002,1.581-0.133
			c1.568-0.351,2.852-1.436,3.861-2.643c0.989-1.11,2.256-2.156,3.794-2.268c0.14-0.009,0.285-0.011,0.426-0.004
			c0.179,0.009,0.378,0.037,0.544,0.014c0.443-0.042,0.861-0.208,1.251-0.417c0.927-0.507,1.723-1.23,2.468-1.972
			c1.564-1.54,2.794-3.402,4.315-4.98c0.718-0.743,1.495-1.451,2.367-2.009c0.538-0.341,1.122-0.629,1.747-0.768
			c0.316-0.07,0.645-0.1,0.968-0.074c0.316,0.026,0.627,0.113,0.944,0.135c0.594,0.057,1.204,0.019,1.775-0.162
			c0.487-0.153,0.941-0.413,1.324-0.75c0.329-0.283,0.599-0.63,0.846-0.984c0.602-0.786,1.358-1.449,2.111-2.085
			c2.064-1.715,4.42-3.274,6.663-4.745"/>
	</g>
	<g id="POLYLINE_225_">
		
			<path fill="none" stroke="#FB8604" stroke-width="2.75" stroke-linecap="round" stroke-linejoin="round" stroke-miterlimit="10" d="
			M224.044,245.353c1.781-1.767,3.805-3.315,6.006-4.522c2.179-1.208,4.5-2.229,6.896-2.92"/>
	</g>
	<g id="POLYLINE_226_">
		
			<path fill="none" stroke="#FB8604" stroke-width="2.75" stroke-linecap="round" stroke-linejoin="round" stroke-miterlimit="10" d="
			M104.889,151.608c4.425,4.886,10.358,9.718,14.491,14.858c2.641,3.252,5.34,7.239,9.177,9.151c1.49,0.77,3.137,1.202,4.795,1.419
			c2.899,0.395,6.204,0.26,9.136,0.243c0.694,0.006,1.431,0.009,2.118,0.105c0.227,0.034,0.458,0.078,0.672,0.164l0.023,0.01
			c0,0,0.023,0.01,0.023,0.01l0.022,0.01l0.021,0.011l0.021,0.011c0.02,0.011,0.039,0.022,0.039,0.022
			c0.019,0.011,0.037,0.023,0.037,0.023c0.017,0.012,0.034,0.024,0.034,0.024c0.016,0.012,0.031,0.025,0.031,0.025
			c0.014,0.013,0.028,0.026,0.028,0.026c0.013,0.013,0.025,0.027,0.025,0.027c0.012,0.014,0.023,0.028,0.023,0.028
			c0.01,0.014,0.02,0.029,0.02,0.029c0.009,0.015,0.017,0.03,0.017,0.03c0.007,0.016,0.014,0.031,0.014,0.031
			c0.006,0.016,0.011,0.032,0.011,0.032c0.004,0.017,0.008,0.034,0.008,0.034c0.003,0.017,0.004,0.027,0.004,0.027
			c0.002,0.019,0.002,0.028,0.002,0.028c0,0.019,0,0.029,0,0.029c-0.001,0.02-0.002,0.03-0.002,0.03
			c-0.002,0.02-0.004,0.031-0.004,0.031c-0.074,0.385-0.408,0.757-0.645,1.057c-0.356,0.426-0.885,1.004-1.184,1.464
			c-0.145,0.228-0.296,0.499-0.299,0.77c0,0.012,0,0.023,0,0.023c0.001,0.012,0.001,0.023,0.001,0.023
			c0.002,0.02,0.004,0.039,0.004,0.039c0.003,0.019,0.007,0.038,0.007,0.038c0.004,0.019,0.009,0.037,0.009,0.037
			c0.005,0.018,0.012,0.037,0.012,0.037c0.007,0.018,0.014,0.036,0.014,0.036c0.008,0.018,0.016,0.035,0.016,0.035
			c0.009,0.017,0.019,0.035,0.019,0.035c0.01,0.017,0.021,0.034,0.021,0.034c0.011,0.017,0.023,0.033,0.023,0.033
			c0.013,0.016,0.026,0.032,0.026,0.032c0.014,0.016,0.028,0.032,0.028,0.032c0.015,0.015,0.03,0.031,0.03,0.031
			c0.016,0.015,0.033,0.03,0.033,0.03c0.017,0.015,0.035,0.029,0.035,0.029c0.018,0.014,0.037,0.029,0.037,0.029
			c0.019,0.014,0.039,0.028,0.039,0.028c0.489,0.316,1.125,0.404,1.694,0.469c1.728,0.152,3.478-0.043,5.183-0.332
			c2.648-0.463,5.247-1.29,7.626-2.551c1.245-0.63,3.027-1.747,4.263-2.407c0.268-0.139,0.556-0.279,0.839-0.386
			c0.252-0.094,0.54-0.178,0.806-0.163c0.018,0.001,0.036,0.003,0.036,0.003c0.018,0.002,0.035,0.004,0.035,0.004
			c0.017,0.003,0.035,0.005,0.035,0.005c0.017,0.003,0.034,0.007,0.034,0.007c0.017,0.004,0.033,0.008,0.033,0.008
			c0.016,0.005,0.032,0.009,0.032,0.009c0.016,0.005,0.031,0.011,0.031,0.011c0.015,0.006,0.031,0.012,0.031,0.012
			c0.015,0.007,0.03,0.014,0.03,0.014c0.015,0.007,0.029,0.015,0.029,0.015c0.014,0.008,0.028,0.016,0.028,0.016
			c0.014,0.009,0.027,0.018,0.027,0.018c0.013,0.01,0.027,0.019,0.027,0.019c0.013,0.01,0.026,0.021,0.026,0.021
			c0.013,0.011,0.025,0.022,0.025,0.022c0.012,0.012,0.024,0.024,0.024,0.024c0.019,0.02,0.025,0.028,0.025,0.028
			c0.013,0.016,0.02,0.024,0.02,0.024c0.013,0.017,0.019,0.025,0.019,0.025c0.209,0.3,0.273,0.648,0.35,0.995
			c0.131,0.589,0.197,1.42,0.559,1.909c0.014,0.018,0.022,0.026,0.022,0.026c0.015,0.017,0.022,0.025,0.022,0.025
			c0.015,0.016,0.023,0.024,0.023,0.024c0.016,0.015,0.024,0.023,0.024,0.023c0.016,0.015,0.024,0.022,0.024,0.022
			c0.017,0.014,0.025,0.02,0.025,0.02c0.017,0.013,0.026,0.019,0.026,0.019c0.018,0.012,0.027,0.018,0.027,0.018
			c0.018,0.011,0.027,0.016,0.027,0.016c0.019,0.01,0.028,0.015,0.028,0.015c0.016,0.008,0.032,0.015,0.032,0.015
			c0.016,0.007,0.033,0.013,0.033,0.013c0.017,0.006,0.034,0.011,0.034,0.011c0.017,0.005,0.035,0.01,0.035,0.01
			c0.018,0.004,0.036,0.008,0.036,0.008c0.018,0.004,0.037,0.007,0.037,0.007c0.019,0.003,0.038,0.005,0.038,0.005
			c0.019,0.002,0.038,0.004,0.038,0.004c0.02,0.001,0.039,0.002,0.039,0.002c0.02,0,0.04,0.001,0.04,0.001
			c0.225-0.002,0.44-0.061,0.651-0.134c1.003-0.366,2.212-1.2,3.135-1.749c0.918-0.558,1.88-1.136,2.879-1.533
			c0.557-0.219,1.147-0.39,1.749-0.404c0.917-0.031,1.8,0.299,2.61,0.701l1.086,0.55c0.538,0.263,1.103,0.509,1.702,0.583
			c0.43,0.055,0.869,0.003,1.285-0.111c0.809-0.224,1.554-0.648,2.261-1.092c1.709-1.091,3.414-2.537,5.243-3.425
			c2.374-1.189,5.179-1.542,7.782-1.916"/>
	</g>
	<g id="POLYLINE_227_">
		
			<path fill="none" stroke="#FB8604" stroke-width="2.75" stroke-linecap="round" stroke-linejoin="round" stroke-miterlimit="10" d="
			M124.593,172.676c-6.531,5.405-18.74,15.294-25.083,20.769c-0.97,0.859-1.991,1.808-2.901,2.73
			c-1.577,1.6-3.085,3.327-4.336,5.195c-0.809,1.21-1.525,2.501-2.045,3.862c-0.916,2.523-1.361,5.224-1.499,7.899
			c-0.124,2.507,0.077,5.054,0.47,7.531c0.381,2.515,0.872,5.104,1.48,7.574c0.906,3.537,1.931,7.155,3.912,10.258
			c0.441,0.68,0.939,1.335,1.5,1.922c1.151,1.139,2.429,2.263,3.466,3.511c0.31,0.376,0.61,0.757,0.705,1.237
			c0.107,0.483,0.07,0.988-0.022,1.471c-0.097,0.484-0.242,0.968-0.434,1.422c-0.167,0.377-0.4,0.728-0.699,1.013
			c-0.294,0.283-0.651,0.498-1.032,0.643c-0.555,0.212-1.156,0.285-1.747,0.285c-0.529-0.006-6.953,0.021-7.275-0.024
			c-0.692-0.041-1.391-0.131-2.06-0.313c-0.837-0.227-1.656-0.614-2.263-1.246c-1.225-1.269-2.014-2.892-2.648-4.52
			c-0.516-1.347-1.112-2.79-1.712-4.102c-0.211-0.469-0.514-1.107-0.763-1.555c-0.174-0.291-0.397-0.607-0.673-0.795
			c-0.101-0.069-0.201-0.115-0.299-0.142c-0.018-0.005-0.027-0.007-0.027-0.007c-0.018-0.004-0.027-0.006-0.027-0.006
			c-0.018-0.003-0.027-0.005-0.027-0.005c-0.018-0.003-0.027-0.004-0.027-0.004c-0.018-0.002-0.027-0.003-0.027-0.003
			c-0.018-0.001-0.028-0.002-0.028-0.002c-0.018-0.001-0.028-0.001-0.028-0.001c-0.018,0-0.028,0-0.028,0
			c-0.018,0.001-0.028,0.001-0.028,0.001c-0.018,0.001-0.028,0.002-0.028,0.002c-0.018,0.002-0.028,0.003-0.028,0.003
			c-0.018,0.003-0.028,0.004-0.028,0.004c-0.397,0.079-0.657,0.38-0.896,0.661c-0.203,0.231-0.447,0.439-0.701,0.573
			c-0.27,0.145-0.58,0.217-0.885,0.194c-0.302-0.022-0.594-0.124-0.858-0.268c-0.267-0.145-0.516-0.325-0.724-0.547
			c-0.538-0.571-0.845-1.316-1.052-2.062c-0.172-0.622-0.273-1.285-0.339-1.927c-0.166-1.814-0.239-3.764-0.221-5.585
			c0.017-1.319,0.127-2.681-0.026-3.988c-0.169-1.668-0.549-3.335-1.012-4.945c-0.426-1.495-1.014-2.987-1.326-4.511
			c-0.756-3.45-0.81-7.035-0.499-10.543c0.298-3.359,0.487-6.889,0.442-10.254c-0.006-1.125-0.078-2.359-0.129-3.479
			c-0.024-0.788,0.002-1.588,0.089-2.371c0.201-1.84,0.756-3.649,1.673-5.26c0.401-0.723,0.925-1.438,1.44-2.087
			c1.184-1.51,2.474-3.007,3.835-4.361c0.58-0.577,1.249-1.195,1.872-1.723c0.729-0.618,1.402-1.33,1.87-2.169
			c0.357-0.639,0.58-1.361,0.593-2.096c0.019-0.593-0.123-1.182-0.285-1.748c-0.557-1.901-1.514-3.675-2.556-5.351
			c-1.928-2.941-3.327-6.316-4.685-9.552c-1.873-4.581-3.716-9.876-5.786-14.369c-0.312-0.66-0.663-1.386-1.08-1.989
			c-0.178-0.287-0.305-0.604-0.424-0.919c-1.019-3-1.521-6.461-2.068-9.586c-0.381-2.382-0.828-5.236-0.948-7.646
			c-0.203-3.453-0.048-6.974,0.66-10.365c0.437-2.136,1.132-4.231,2.011-6.226c1.059-2.427,2.388-4.778,3.972-6.902
			c1.839-2.47,4.063-4.685,6.553-6.499c5.874-4.276,12.873-6.763,19.707-9.054c5.108-1.789,10.388-3.874,15.263-6.217
			c1.638-0.784,3.377-1.751,5.088-2.382c2.525-0.977,5.205-1.658,7.87-2.121c4.517-0.813,9.269-0.905,13.852-0.937
			c5.345-0.123,10.99-0.256,16.271-1.111c3.198-0.575,6.281-1.76,9.129-3.312c1.272-0.668,2.483-1.529,3.762-2.187
			c2.058-1.069,4.279-1.869,6.499-2.528c3.297-0.978,6.782-1.648,10.176-2.184c5.028-0.745,12.007-2.01,16.998-2.992
			c2.591-0.488,5.906-1.317,8.525-1.771c2.986-0.533,6.148-0.931,9.178-1.103c3.205-0.22,6.621-0.069,9.825,0.076
			c4.181,0.221,8.712,0.617,12.867,1.156"/>
	</g>
	<g id="POLYLINE_228_">
		
			<path fill="none" stroke="#FB8604" stroke-width="2.75" stroke-linecap="round" stroke-linejoin="round" stroke-miterlimit="10" d="
			M67.943,139.121c-1.414,2.27-2.768,4.804-2.659,7.555c0.099,2.326,1.228,4.925,1.946,7.124c0.992,2.891,1.613,5.965,1.372,9.031
			c-0.145,1.684-0.524,3.503-1.668,4.807c-0.35,0.391-0.778,0.715-1.259,0.927c-0.993,0.431-2.107,0.458-3.174,0.459
			c0,0-1.956-0.035-1.956-0.035c-0.831-0.001-1.686,0.014-2.488,0.253c-0.462,0.139-0.905,0.372-1.234,0.73
			c-0.448,0.487-0.658,1.141-0.79,1.778c-0.376,1.996-0.125,4.361-0.08,6.389c0.009,0.551,0.013,1.127-0.054,1.674
			c-0.036,0.271-0.086,0.547-0.202,0.795c0,0-0.01,0.021-0.01,0.021c-0.01,0.02-0.021,0.04-0.021,0.04
			c-0.011,0.019-0.022,0.038-0.022,0.038c-0.011,0.018-0.023,0.036-0.023,0.036c-0.012,0.017-0.024,0.034-0.024,0.034
			c-0.009,0.012-0.018,0.024-0.018,0.024c-0.009,0.011-0.019,0.023-0.019,0.023c-0.009,0.011-0.019,0.022-0.019,0.022
			c-0.02,0.02-0.029,0.03-0.029,0.03c-0.02,0.019-0.031,0.028-0.031,0.028c-0.01,0.009-0.021,0.017-0.021,0.017
			c-0.011,0.008-0.022,0.016-0.022,0.016c-0.011,0.008-0.022,0.015-0.022,0.015c-0.011,0.007-0.023,0.014-0.023,0.014
			c-0.011,0.007-0.023,0.013-0.023,0.013c-0.012,0.006-0.023,0.012-0.023,0.012c-0.012,0.006-0.024,0.012-0.024,0.012
			c-0.012,0.005-0.024,0.011-0.024,0.011c-0.012,0.005-0.025,0.01-0.025,0.01c-0.013,0.004-0.025,0.009-0.025,0.009
			c-0.013,0.004-0.026,0.008-0.026,0.008c-0.013,0.004-0.026,0.007-0.026,0.007c-0.013,0.003-0.027,0.006-0.027,0.006
			c-0.013,0.003-0.027,0.005-0.027,0.005c-0.313,0.045-0.597-0.065-0.865-0.193c-0.349-0.175-0.669-0.414-0.966-0.667
			c-1.37-1.203-2.417-2.749-3.199-4.388c-0.791-1.69-1.31-3.528-1.41-5.395c-0.062-1.259,0.073-2.553,0.562-3.724
			c0.445-1.079,1.227-1.991,2.142-2.702c1.432-1.111,3.145-1.808,4.871-2.323c0,0,1.653-0.457,1.653-0.457
			c0.556-0.165,1.126-0.351,1.594-0.703c0.315-0.236,0.562-0.561,0.704-0.928c0.155-0.397,0.21-0.828,0.234-1.251
			c0.047-0.988-0.075-2.005-0.2-2.984c-0.462-3.487-1.303-7.223-0.83-10.743c0.262-1.931,0.933-3.799,1.859-5.509
			c1.18-2.191,2.772-4.174,4.372-6.071"/>
	</g>
	<g id="POLYLINE_229_">
		
			<path fill="none" stroke="#FB8604" stroke-width="2.75" stroke-linecap="round" stroke-linejoin="round" stroke-miterlimit="10" d="
			M82.144,244.063c1.739-0.155,3.481-0.489,5.118-1.106c2.684-1.022,5.178-2.579,7.283-4.532"/>
	</g>
	<g id="POLYLINE_230_">
		
			<path fill="none" stroke="#FB8604" stroke-width="2.75" stroke-linecap="round" stroke-linejoin="round" stroke-miterlimit="10" d="
			M544.48,94.76c-4.065-2.667-8.267-5.937-9.816-10.738c-0.535-1.662-0.687-3.432-0.657-5.17c0.052-2.71,0.542-5.446,1.097-8.094
			c0.622-2.718,1.789-7.874,2.22-10.575c0.172-0.845,0.366-1.708,0.713-2.5c0.264-0.602,0.642-1.17,1.172-1.568
			c0.61-0.464,1.375-0.668,2.127-0.746c1.289-0.126,2.596,0.071,3.845,0.391c3.867,1.042,7.498,3.327,9.782,6.657
			c1.547,2.237,2.524,4.838,3.087,7.489c0.628,2.984,0.762,6.072,0.506,9.108"/>
	</g>
	<g id="POLYLINE_231_">
		
			<path fill="none" stroke="#FB8604" stroke-width="2.75" stroke-linecap="round" stroke-linejoin="round" stroke-miterlimit="10" d="
			M571.383,64.772c0.741-1.54,1.508-3.191,2.716-4.422c0.861-0.906,1.901-1.633,2.985-2.247c1.423-0.805,2.955-1.465,4.498-2.003
			c1.739-0.587,3.55-1.076,5.393-1.145c0.738-0.013,1.517,0.03,2.184,0.376c0.871,0.453,1.117,1.444,1.169,2.344
			c0.034,0.543,0.01,1.112-0.022,1.655c-0.105,1.284-0.239,3.104-0.234,4.376c-0.028,3.443,0.39,7.57-0.054,10.986
			c-0.178,1.381-0.543,2.744-1.058,4.037c-0.699,1.778-1.71,3.476-2.721,5.093"/>
	</g>
	<g id="POLYLINE_232_">
		
			<path fill="none" stroke="#FB8604" stroke-width="2.75" stroke-linecap="round" stroke-linejoin="round" stroke-miterlimit="10" d="
			M577.513,142.709c-0.309-0.308-0.527-0.715-0.571-1.152c-0.058-0.524,0.098-1.046,0.313-1.519c0.234-0.51,0.549-0.989,0.88-1.441
			c1.211-1.647,2.982-3.243,4.29-4.814c0.186-0.202,0.395-0.432,0.646-0.543c0.017-0.007,0.023-0.009,0.023-0.009
			c0.017-0.006,0.023-0.008,0.023-0.008c0.017-0.006,0.023-0.007,0.023-0.007c0.017-0.005,0.023-0.006,0.023-0.006
			c0.017-0.004,0.023-0.005,0.023-0.005c0.017-0.003,0.023-0.004,0.023-0.004c0.017-0.003,0.023-0.003,0.023-0.003
			c0.017-0.002,0.023-0.002,0.023-0.002c0.017-0.001,0.023-0.001,0.023-0.001c0.017,0,0.023,0,0.023,0
			c0.017,0.001,0.023,0.001,0.023,0.001c0.017,0.001,0.023,0.002,0.023,0.002c0.017,0.002,0.023,0.003,0.023,0.003
			c0.017,0.003,0.023,0.004,0.023,0.004c0.017,0.004,0.023,0.005,0.023,0.005c0.017,0.005,0.023,0.007,0.023,0.007
			c0.017,0.006,0.023,0.008,0.023,0.008c0.021,0.008,0.031,0.012,0.031,0.012c0.01,0.005,0.021,0.009,0.021,0.009
			c0.36,0.187,0.604,0.612,0.802,0.948c0.576,1.054,0.974,2.232,1.354,3.37c0.312,0.99,0.663,2.103,0.891,3.113
			c0.116,0.532,0.21,1.08,0.204,1.626c0,0.565-0.158,1.192-0.582,1.58c-0.549,0.508-1.352,0.632-2.069,0.69
			c-1.471,0.084-2.958-0.164-4.353-0.625C578.955,143.665,578.127,143.31,577.513,142.709z"/>
	</g>
	<g id="POLYLINE_233_">
		
			<path fill="none" stroke="#FB8604" stroke-width="2.75" stroke-linecap="round" stroke-linejoin="round" stroke-miterlimit="10" d="
			M600.611,156.798c-0.906-0.405-1.732-1.014-2.341-1.803c-0.604-0.777-0.98-1.723-1.104-2.698
			c-0.133-1.057-0.011-2.141,0.278-3.163c0.289-1.006,0.747-1.978,1.407-2.796c0.366-0.455,0.807-0.851,1.302-1.16
			c0.916-0.588,2.138-0.948,3.158-1.322c0.508-0.189,1.02-0.402,1.487-0.677c0.45-0.265,0.872-0.594,1.269-0.932
			c1.023-0.868,2.075-1.964,3.403-2.33c1.306-0.364,2.742-0.139,3.926,0.501c0.683,0.37,1.287,0.892,1.738,1.526
			c0.999,1.419,1.329,3.206,1.328,4.914c-0.015,1.701-0.371,3.421-1.145,4.943c-0.697,1.372-1.749,2.555-2.999,3.448
			c-1.97,1.406-4.372,2.145-6.774,2.305C603.876,157.652,602.151,157.479,600.611,156.798z"/>
	</g>
	<g id="POLYLINE_234_">
		
			<path fill="none" stroke="#FB8604" stroke-width="2.75" stroke-linecap="round" stroke-linejoin="round" stroke-miterlimit="10" d="
			M611.421,139.783c-0.385-0.59-1.349-1.697-1.816-2.262c-0.493-0.593-1.013-1.288-1.46-1.92
			c-3.409-4.874-6.351-10.899-10.051-15.567c-3.257-4.266-8.054-7.649-10.806-12.31c-2.064-3.504-2.875-7.635-2.837-11.671
			c-0.016-3.146,0.802-6.681,1.413-9.766c0.403-2.208,0.722-4.514,0.227-6.732c-0.244-1.103-0.718-2.147-1.318-3.1
			c-1.539-2.418-3.753-4.339-5.968-6.123c-1.543-1.222-4.062-3.099-5.642-4.289c-1.37-1.007-2.826-2.026-4.308-2.861
			c-4.734-2.724-10.404-3.455-15.785-3.018"/>
	</g>
	<g id="POLYLINE_235_">
		
			<path fill="none" stroke="#FB8604" stroke-width="2.75" stroke-linecap="round" stroke-linejoin="round" stroke-miterlimit="10" d="
			M517.61,173.247c2.742,4.889,5.678,9.817,9.307,14.106c1.033,1.231,2.053,2.175,3.18,3.277c0.968,0.987,1.886,2.052,2.627,3.221
			c0.837,1.321,1.479,2.836,1.48,4.422c-0.009,2.433-0.794,4.805-1.897,6.952c-0.409,0.784-0.853,1.578-1.37,2.295
			c-0.547,0.762-1.18,1.472-1.863,2.115c-1.447,1.362-3.144,2.455-4.916,3.346c-0.911,0.467-1.909,0.851-2.819,1.318
			c-1.204,0.618-2.374,1.354-3.329,2.322c-0.789,0.799-1.415,1.797-1.619,2.913c-0.127,0.667-0.083,1.366-0.058,2.041
			c0.057,0.999,0.192,2.012,0.533,2.957c0.26,0.709,0.647,1.402,1.247,1.877c0.514,0.407,1.137,0.655,1.767,0.82
			c1.01,0.259,2.07,0.32,3.109,0.315c2.895-0.023,5.755-0.705,8.483-1.636c1.695-0.594,3.452-1.225,4.894-2.323
			c1.649-1.211,2.896-2.936,3.588-4.857c0.379-0.985,0.541-2.041,0.832-3.052c0.734-2.598,1.98-5.051,3.536-7.251
			c0.566-0.801,1.21-1.617,1.851-2.358c0.527-0.592,1.062-1.223,1.513-1.875c1.459-2.067,2.401-4.486,2.787-6.983
			c0.167-1.063,0.243-2.155,0.239-3.231c0-1.597-0.226-3.662-0.334-5.259c-0.225-2.596-0.533-5.509-0.929-8.083
			c-0.177-1.127-0.402-2.387-0.554-3.518c-0.55-4.064-0.862-8.439-1.085-12.536"/>
	</g>
	<g id="POLYLINE_236_">
		
			<path fill="none" stroke="#FB8604" stroke-width="2.75" stroke-linecap="round" stroke-linejoin="round" stroke-miterlimit="10" d="
			M523.489,227.533c2.506-5.012,3.812-10.653,3.56-16.262"/>
	</g>
	<g id="POLYLINE_237_">
		
			<path fill="none" stroke="#FB8604" stroke-width="2.75" stroke-linecap="round" stroke-linejoin="round" stroke-miterlimit="10" d="
			M503.738,244.904c3.971-2.886,8.647-4.692,13.412-5.771"/>
	</g>
	<g id="POLYLINE_238_">
		
			<path fill="none" stroke="#FB8604" stroke-width="2.75" stroke-linecap="round" stroke-linejoin="round" stroke-miterlimit="10" d="
			M427.654,118.627c1.958,13.178,4.32,27.592,4.936,40.873c0.037,2.109,0.118,4.291-0.309,6.365
			c-0.135,0.632-0.428,1.232-0.703,1.814c-0.816,1.667-1.864,3.257-2.943,4.766c-3.308,4.617-7.353,8.805-11.156,13.008
			c-2.964,3.361-5.828,6.97-8.257,10.736c-1.695,2.624-3.227,5.412-4.447,8.29c-2.673,6.235-4.047,13-4.335,19.766
			c-0.118,2.549-0.171,5.224,0.041,7.768c0.144,1.596,0.362,3.227,0.926,4.735c0.213,0.579,0.542,1.119,0.783,1.686
			c0.522,1.177,0.908,2.431,1.147,3.697c0.237,1.267,0.342,2.577,0.308,3.865c-0.041,0.968-0.195,1.978-0.746,2.797
			c-0.197,0.289-0.45,0.543-0.744,0.733c-0.276,0.179-0.588,0.304-0.908,0.377c-0.298,0.069-0.607,0.097-0.912,0.097
			c0,0-7.001,0-7.001,0c-0.216-0.004-0.454-0.007-0.669-0.028c-1.074-0.086-2.151-0.452-2.958-1.184
			c-0.571-0.509-0.994-1.168-1.287-1.87c-0.812-1.997-1.363-4.124-1.628-6.263c-0.152-1.629-0.521-3.242-1.09-4.776
			c-0.411-1.158-0.974-2.266-1.516-3.367c-0.649-1.41-1.182-2.939-1.137-4.51c0.016-0.577,0.145-1.147,0.334-1.691
			c0.722-2.012,1.883-3.88,3.01-5.687c0.529-0.836,1.136-1.69,1.6-2.556c0.862-1.591,1.488-3.317,1.967-5.059
			c1.025-3.738,1.389-7.658,1.595-11.519c0.23-3.431,0.591-7.006,1.091-10.407c0.491-3.472,1.261-7.094,2.059-10.512
			c0.61-2.763,1.256-6.076,1.733-8.864c2.048-11.872,2.585-25.168,3.35-37.214c0.653-10.716,2.04-21.66,6.225-31.628
			c1.185-2.769,2.668-5.46,4.24-8.027c3.185-5.151,7.119-9.9,11.766-13.797c5.489-4.446,11.451-8.731,17.469-12.428
			c1.594-0.955,3.408-2.08,5.105-2.866c1.696-0.802,3.488-1.513,5.291-2.04c2.603-0.775,5.312-1.239,8.023-1.398
			c2.404-0.144,4.871,0.045,7.276-0.084c5.408-0.226,10.913-1.038,16.223-2.074c5.865-1.181,12.085-2.75,17.993-3.718
			c4.493-0.726,9.141-1.422,13.703-1.363c3.059,0.073,6.152,0.491,9.164,1.015c5.042,0.893,10.239,2.197,15.171,3.572"/>
	</g>
	<g id="POLYLINE_239_">
		
			<path fill="none" stroke="#FB8604" stroke-width="2.75" stroke-linecap="round" stroke-linejoin="round" stroke-miterlimit="10" d="
			M430.489,169.659c1.309,2.327,3.084,4.375,5.008,6.214c1.329,1.257,2.708,2.528,4.288,3.464c0.672,0.382,1.407,0.732,2.193,0.754
			c0.453,0.011,0.879-0.141,1.28-0.334c0.459-0.206,0.98-0.583,1.501-0.484c0.29,0.067,0.508,0.243,0.715,0.421
			c0.237,0.208,0.649,0.652,0.874,0.883c0.398,0.404,0.83,0.797,1.35,1.037c1.085,0.495,2.497,0.412,3.665,0.485
			c0.73,0.039,1.469,0.118,2.173,0.319c0.606,0.173,1.189,0.438,1.746,0.731c1.228,0.64,2.645,1.625,3.93,2.139
			c0.851,0.351,1.78,0.533,2.697,0.382c0.959-0.143,1.889-0.527,2.779-0.901c1.527-0.645,3.133-1.409,4.82-1.423
			c1.565-0.004,3.051,0.621,4.452,1.259c1.982,0.904,4.253,2.252,6.463,2.4c1.151,0.072,2.302-0.207,3.352-0.668
			c1.764-0.777,3.296-2.011,4.745-3.263"/>
	</g>
	<g id="POLYLINE_240_">
		
			<path fill="none" stroke="#FB8604" stroke-width="2.75" stroke-linecap="round" stroke-linejoin="round" stroke-miterlimit="10" d="
			M451.036,182.084c-0.954,4.534-1.993,9.343-3.433,13.736c-0.409,1.22-0.875,2.444-1.491,3.574
			c-0.471,0.933-0.802,1.944-0.96,2.977c-0.254,1.63-0.079,3.309,0.373,4.889c0.194,0.704,0.488,1.419,0.703,2.118
			c1.288,4.244,1.885,8.823,2.431,13.219c0.436,3.889,0.933,9.091,1.203,12.983c0.127,1.976,0.257,4.175,0.205,6.148
			c-0.023,0.719-0.019,1.466,0.028,2.183c0.076,1.11,0.242,2.237,0.651,3.277c0.203,0.504,0.452,1.009,0.857,1.382
			c0.51,0.482,1.166,0.778,1.831,0.979c1.232,0.363,2.538,0.443,3.816,0.449c0,0,9.001,0,9.001,0
			c0.194-0.002,0.414-0.005,0.609-0.02c0.506-0.036,1.018-0.117,1.498-0.284c0.672-0.227,1.29-0.659,1.651-1.278
			c0.36-0.598,0.472-1.307,0.482-1.996c0.026-0.923-0.073-1.853-0.306-2.747c-0.19-0.732-0.47-1.445-0.824-2.113
			c-0.285-0.571-1.104-1.747-1.468-2.299c-1.028-1.521-2.44-3.455-3.514-4.943c-0.326-0.494-0.596-1.037-0.829-1.58
			c-1.036-2.485-1.563-5.188-2.023-7.831c-0.564-3.51-1.008-7.168-1.156-10.72c-0.096-2.851-0.054-5.772,0.641-8.553
			c0.21-0.811,0.489-1.621,0.876-2.366c0.483-0.938,0.97-2.014,1.389-2.984c2.191-5.122,4.499-11.659,6.38-16.94"/>
	</g>
	<g id="POLYLINE_241_">
		
			<path fill="none" stroke="#FB8604" stroke-width="2.75" stroke-linecap="round" stroke-linejoin="round" stroke-miterlimit="10" d="
			M539.82,127.59c-0.477,4.114,0.241,8.303,1.634,12.18c0.482,1.283,1.004,2.595,1.848,3.689c0.23,0.284,0.513,0.575,0.85,0.718
			c0.239,0.1,0.473,0.099,0.717,0.08l0.394-0.038c0.317-0.032,0.675-0.003,0.96,0.116c0.596,0.251,1.063,0.721,1.516,1.166
			c0.978,0.978,2.134,2.499,3.161,3.425c0.216,0.186,0.467,0.389,0.735,0.475c0.014,0.004,0.029,0.008,0.029,0.008
			c0.014,0.004,0.028,0.007,0.028,0.007c0.02,0.004,0.026,0.005,0.026,0.005c0.02,0.003,0.026,0.004,0.026,0.004
			c0.019,0.002,0.026,0.003,0.026,0.003c0.019,0.002,0.025,0.002,0.025,0.002c0.019,0.001,0.025,0.001,0.025,0.001
			c0.018,0,0.024,0,0.024,0c0.018-0.001,0.024-0.001,0.024-0.001c0.018-0.002,0.024-0.002,0.024-0.002
			c0.018-0.002,0.024-0.003,0.024-0.003c0.017-0.003,0.023-0.004,0.023-0.004c0.017-0.004,0.023-0.005,0.023-0.005
			c0.145-0.036,0.251-0.104,0.367-0.182c0.247-0.179,0.536-0.388,0.845-0.403c0.304-0.018,0.568,0.068,0.843,0.166
			c0.397,0.149,0.79,0.354,1.163,0.555c0.868,0.472,2.081,1.217,2.995,1.559c0.265,0.099,0.54,0.183,0.822,0.218
			c0.289,0.04,0.596,0.002,0.845-0.131c0.312-0.162,0.545-0.417,0.762-0.674c0.318-0.373,0.653-0.868,1.087-1.101
			c0.252-0.141,0.531-0.171,0.803-0.143c0.357,0.036,0.703,0.153,1.034,0.285c1.353,0.56,2.767,1.503,4.131,2.039
			c0.609,0.241,1.255,0.429,1.915,0.417c0.899-0.002,1.805-0.363,2.648-0.646c0.565-0.184,1.168-0.344,1.765-0.244
			c0.415,0.069,0.786,0.255,1.139,0.474c0.632,0.391,1.463,1.127,2.047,1.599c0.7,0.556,1.45,1.12,2.337,1.325
			c0.464,0.106,0.949,0.075,1.411-0.028c1.302-0.296,2.593-1.115,3.838-1.576c0.53-0.195,1.092-0.349,1.661-0.329
			c0.988,0.04,1.862,0.587,2.653,1.136c1.015,0.709,2.094,1.635,3.284,2.027c1.993,0.641,4.11,0.012,6.019-0.635"/>
	</g>
	<g id="POLYLINE_242_">
		
			<path fill="none" stroke="#FB8604" stroke-width="2.75" stroke-linecap="round" stroke-linejoin="round" stroke-miterlimit="10" d="
			M469.929,123.871c-0.592,6.513-1.029,13.238-0.738,19.769c0.188,3.694,0.551,7.449,1.644,10.995
			c0.297,0.938,0.649,1.863,1.094,2.739c1.771,3.485,3.825,6.946,6.059,10.154c1.066,1.53,2.311,3.188,3.482,4.637
			c0.712,0.863,1.512,1.828,2.172,2.721c1.562,2.101,2.952,4.379,4.147,6.707c1.933,3.719,3.392,7.823,4.621,11.832
			c1.509,4.806,2.993,10.044,4.178,14.938c1.026,4.268,1.984,8.699,2.013,13.102c0.002,0.851-0.039,1.741-0.141,2.585
			c-0.089,0.724-0.255,1.532-0.369,2.254c-0.341,2.155-0.538,4.395-0.596,6.576c-0.046,1.693-0.001,3.527,0.083,5.218
			c0.069,1.096,0.131,2.251,0.365,3.327c0.067,0.291,0.155,0.612,0.335,0.845c0.192,0.262,0.495,0.399,0.788,0.456
			c0.575,0.103,1.155-0.023,1.709-0.177c0.352-0.101,0.723-0.165,1.09-0.131c0.326,0.028,0.679,0.165,0.912,0.385
			c0.544,0.494,0.643,1.258,0.895,1.909c0.362,1.036,0.791,2.141,1.216,3.153c0.085,0.192,0.185,0.389,0.3,0.566
			c0.328,0.521,0.804,0.95,1.366,1.205c0.408,0.189,0.854,0.293,1.301,0.337c0.153,0.014,0.32,0.025,0.474,0.026
			c0,0,0.082,0.001,0.082,0.001h7.151c1.296-0.01,2.627-0.066,3.872-0.457c0.568-0.186,1.143-0.464,1.509-0.953
			c0.717-1.019,0.655-2.358,0.322-3.507c-0.537-1.895-1.706-3.559-3.124-4.903c-0.27-0.255-0.551-0.499-0.784-0.788
			c-0.549-0.661-0.973-1.424-1.337-2.2c-0.992-2.157-1.603-4.509-2.126-6.819c-0.695-3.182-1.325-6.525-1.649-9.762
			c-0.247-2.452-0.271-5.065-0.254-7.53c0.003-2.06,0.191-4.282,0.246-6.337c0.023-2.075-0.148-4.216-0.392-6.276
			c-0.638-4.969-2.063-12.187-2.957-17.119c-0.081-0.446-0.146-0.914-0.184-1.367c-0.093-1.09-0.046-2.204,0.21-3.27
			c0.474-1.982,1.724-3.829,3.525-4.822c1.469-0.809,3.217-0.934,4.852-0.693c0.928,0.132,1.911,0.396,2.842,0.527
			c2.837,0.456,5.777,0.657,8.647,0.738c1.278,0.031,2.684,0.09,3.951-0.113c1.486-0.218,2.944-0.68,4.312-1.297
			c2.34-1.058,4.466-2.561,6.404-4.235c2.028-1.748,3.895-3.86,5.867-5.67c4.993-4.663,10.578-8.834,16.319-12.527"/>
	</g>
	<g id="POLYLINE_243_">
		
			<path fill="none" stroke="#FB8604" stroke-width="2.75" stroke-linecap="round" stroke-linejoin="round" stroke-miterlimit="10" d="
			M387.069,242.399c5.197-0.37,10.268-2.157,14.606-5.032"/>
	</g>
	<g id="POLYLINE_244_">
		
			<path fill="none" stroke="#FB8604" stroke-width="2.75" stroke-linecap="round" stroke-linejoin="round" stroke-miterlimit="10" d="
			M450.076,241.173c1.707,0.187,3.452,0.104,5.149-0.144c1.818-0.275,3.633-0.738,5.321-1.471c0.92-0.402,1.807-0.91,2.614-1.507
			c0.852-0.626,1.642-1.369,2.388-2.118"/>
	</g>
	<g id="POLYLINE_245_">
		
			<path fill="none" stroke="#FB8604" stroke-width="2.75" stroke-linecap="round" stroke-linejoin="round" stroke-miterlimit="10" d="
			M881.75,186.178c-2.355-3.743-4.247-8.074-3.879-12.586c0.166-2.088,0.77-4.128,1.561-6.06c1.09-2.631,2.55-5.129,4.215-7.436
			c0.716-0.991,1.525-1.992,2.336-2.908c1.086-1.228,2.931-3.096,3.985-4.343c1.351-1.573,2.595-3.46,4.182-4.811
			c0.609-0.513,1.297-0.958,2.066-1.184c0.809-0.245,1.683-0.186,2.487,0.054c1.204,0.358,2.286,1.049,3.257,1.831
			c1.64,1.341,3.012,3,4.151,4.78c2.957,4.656,4.133,10.259,4.157,15.725c0.004,3.117-0.384,6.265-1.229,9.268
			c-0.771,2.759-1.938,5.415-3.329,7.915"/>
	</g>
	<g id="POLYLINE_246_">
		
			<path fill="none" stroke="#FB8604" stroke-width="2.75" stroke-linecap="round" stroke-linejoin="round" stroke-miterlimit="10" d="
			M933.558,239.721c-1.43,0.285-2.852,0.709-4.152,1.379c-0.462,0.241-0.931,0.5-1.3,0.875c-1.026,1.027-1.457,2.485-1.706,3.88
			c-0.133,0.775-0.223,1.587-0.03,2.359c0.088,0.362,0.268,0.73,0.519,1.001c0.255,0.278,0.559,0.457,0.905,0.582
			c0.305,0.108,0.629,0.164,0.951,0.188c3.675,0.029,10.444,0.023,14.101,0.003c0.387-0.032,0.774-0.147,1.092-0.374
			c0.521-0.366,0.797-0.98,0.927-1.587c0.113-0.559,0.165-1.141,0.09-1.708c-0.223-1.622-1.448-2.876-2.722-3.797
			c-0.385-0.278-0.797-0.541-1.207-0.779c-1.336-0.765-2.751-1.444-4.244-1.836C935.736,239.636,934.627,239.511,933.558,239.721z"
			/>
	</g>
	<g id="POLYLINE_247_">
		
			<path fill="none" stroke="#FB8604" stroke-width="2.75" stroke-linecap="round" stroke-linejoin="round" stroke-miterlimit="10" d="
			M910.103,172.774c3.361,2.947,6.199,6.588,7.825,10.777c0.844,2.161,1.391,4.458,1.675,6.759c0.237,1.975,0.29,4.001,0.065,5.979
			c-0.08,0.688-0.197,1.39-0.358,2.064c-0.25,1.104-0.782,2.552-1.133,3.636c-0.336,1.049-0.609,2.143-0.596,3.251
			c0.004,0.891,0.206,1.772,0.505,2.608c0.641,1.771,1.655,3.403,2.716,4.95c2.956,4.266,7.215,8.747,10.326,12.907
			c1.375,1.852,2.657,3.819,3.554,5.95c1.09,2.582,1.598,5.385,1.774,8.172"/>
	</g>
	<g id="POLYLINE_248_">
		
			<path fill="none" stroke="#FB8604" stroke-width="2.75" stroke-linecap="round" stroke-linejoin="round" stroke-miterlimit="10" d="
			M916.802,239.222c-0.088-0.464,0.048-0.939,0.222-1.367c0.44-1.022,1.152-1.913,1.939-2.691c0.373-0.36,0.778-0.703,1.219-0.977
			c0.28-0.171,0.612-0.342,0.936-0.375c0.017-0.001,0.035-0.003,0.035-0.003c0.017-0.001,0.034-0.001,0.034-0.001
			c0.017,0,0.033,0,0.033,0c0.016,0.001,0.033,0.002,0.033,0.002c0.016,0.001,0.028,0.003,0.028,0.003
			c0.012,0.001,0.024,0.003,0.024,0.003c0.012,0.002,0.024,0.004,0.024,0.004c0.012,0.002,0.023,0.005,0.023,0.005
			c0.011,0.003,0.023,0.005,0.023,0.005c0.011,0.003,0.022,0.006,0.022,0.006c0.011,0.003,0.022,0.007,0.022,0.007
			c0.011,0.004,0.021,0.008,0.021,0.008c0.011,0.004,0.021,0.009,0.021,0.009c0.021,0.009,0.031,0.014,0.031,0.014
			c0.02,0.01,0.03,0.016,0.03,0.016c0.019,0.012,0.029,0.018,0.029,0.018c0.019,0.013,0.028,0.019,0.028,0.019
			c0.018,0.014,0.027,0.021,0.027,0.021c0.017,0.015,0.026,0.022,0.026,0.022c0.017,0.016,0.025,0.024,0.025,0.024
			c0.016,0.017,0.024,0.025,0.024,0.025c0.016,0.018,0.023,0.027,0.023,0.027c0.015,0.019,0.023,0.028,0.023,0.028
			c0.015,0.02,0.022,0.03,0.022,0.03c0.181,0.269,0.238,0.574,0.285,0.885c0.084,0.638,0.058,1.31,0.032,1.952
			c-0.022,0.362-0.083,1.846-0.126,2.176c-0.037,0.331-0.114,0.703-0.302,0.973c-0.242,0.355-0.628,0.506-1.023,0.59
			c-0.478,0.097-0.975,0.101-1.458,0.046c-0.551-0.067-1.106-0.211-1.583-0.501C917.201,240.002,916.88,239.643,916.802,239.222z"/>
	</g>
	<g id="POLYLINE_249_">
		
			<path fill="none" stroke="#FB8604" stroke-width="2.75" stroke-linecap="round" stroke-linejoin="round" stroke-miterlimit="10" d="
			M886.227,213.031c-0.414,1.098-0.597,2.277-0.704,3.441c-0.132,1.556-0.112,3.138,0.077,4.688
			c0.091,0.702,0.215,1.417,0.435,2.091c0.111,0.329,0.248,0.675,0.466,0.947c0.015,0.018,0.03,0.035,0.03,0.035
			c0.015,0.017,0.03,0.033,0.03,0.033c0.015,0.016,0.031,0.031,0.031,0.031c0.016,0.015,0.031,0.029,0.031,0.029
			c0.016,0.013,0.031,0.026,0.031,0.026c0.016,0.012,0.032,0.024,0.032,0.024c0.016,0.011,0.032,0.022,0.032,0.022
			c0.016,0.01,0.032,0.019,0.032,0.019c0.016,0.009,0.033,0.017,0.033,0.017c0.016,0.007,0.033,0.014,0.033,0.014
			c0.017,0.006,0.023,0.008,0.023,0.008c0.019,0.006,0.025,0.008,0.025,0.008c0.019,0.005,0.025,0.006,0.025,0.006
			c0.019,0.004,0.025,0.005,0.025,0.005c0.019,0.003,0.026,0.004,0.026,0.004c0.019,0.002,0.026,0.003,0.026,0.003
			c0.019,0.001,0.026,0.002,0.026,0.002c0.019,0,0.026,0,0.026,0c0.02,0,0.026-0.001,0.026-0.001
			c0.02-0.001,0.026-0.002,0.026-0.002c0.361-0.034,0.66-0.282,1.009-0.344c0.018-0.002,0.024-0.003,0.024-0.003
			c0.017-0.002,0.023-0.002,0.023-0.002c0.017-0.001,0.023-0.001,0.023-0.001c0.017,0,0.023,0,0.023,0
			c0.017,0.001,0.023,0.001,0.023,0.001c0.017,0.001,0.022,0.002,0.022,0.002c0.016,0.002,0.022,0.003,0.022,0.003
			c0.016,0.003,0.022,0.004,0.022,0.004c0.016,0.004,0.021,0.006,0.021,0.006c0.016,0.005,0.021,0.007,0.021,0.007
			c0.016,0.006,0.021,0.008,0.021,0.008c0.02,0.01,0.025,0.013,0.025,0.013c0.02,0.012,0.025,0.015,0.025,0.015
			c0.019,0.014,0.024,0.017,0.024,0.017c0.019,0.016,0.024,0.02,0.024,0.02c0.012,0.011,0.023,0.022,0.023,0.022
			c0.011,0.012,0.023,0.025,0.023,0.025c0.011,0.013,0.022,0.027,0.022,0.027c0.011,0.014,0.021,0.03,0.021,0.03
			c0.01,0.016,0.021,0.032,0.021,0.032c0.01,0.017,0.02,0.034,0.02,0.034c0.01,0.018,0.02,0.037,0.02,0.037
			c0.127,0.255,0.186,0.527,0.242,0.803c0.286,1.625,0.325,3.822,0.497,5.469c0.075,0.718,0.161,1.467,0.344,2.166
			c0.081,0.295,0.177,0.595,0.343,0.854c0.014,0.021,0.028,0.041,0.028,0.041c0.014,0.02,0.028,0.038,0.028,0.038
			c0.014,0.018,0.029,0.036,0.029,0.036c0.015,0.017,0.03,0.034,0.03,0.034c0.015,0.016,0.03,0.031,0.03,0.031
			c0.015,0.015,0.031,0.029,0.031,0.029c0.016,0.014,0.032,0.027,0.032,0.027c0.016,0.012,0.032,0.024,0.032,0.024
			c0.018,0.012,0.028,0.018,0.028,0.018c0.019,0.011,0.028,0.016,0.028,0.016c0.019,0.01,0.029,0.015,0.029,0.015
			c0.019,0.009,0.029,0.013,0.029,0.013c0.02,0.008,0.029,0.011,0.029,0.011c0.02,0.007,0.03,0.01,0.03,0.01
			c0.02,0.006,0.03,0.008,0.03,0.008c0.253,0.058,0.488-0.022,0.714-0.118c0.383-0.171,0.778-0.452,1.133-0.677
			c0.213-0.132,0.461-0.287,0.702-0.342c0.018-0.004,0.027-0.005,0.027-0.005c0.018-0.003,0.027-0.004,0.027-0.004
			c0.018-0.002,0.026-0.003,0.026-0.003c0.017-0.001,0.026-0.002,0.026-0.002c0.017,0,0.029,0,0.029,0
			c0.012,0,0.024,0.001,0.024,0.001c0.012,0.001,0.024,0.002,0.024,0.002c0.012,0.002,0.023,0.004,0.023,0.004
			c0.011,0.002,0.023,0.005,0.023,0.005c0.011,0.003,0.022,0.006,0.022,0.006c0.011,0.004,0.022,0.008,0.022,0.008
			c0.011,0.004,0.021,0.009,0.021,0.009c0.01,0.005,0.021,0.01,0.021,0.01c0.02,0.011,0.03,0.017,0.03,0.017
			c0.019,0.013,0.029,0.02,0.029,0.02c0.019,0.015,0.028,0.023,0.028,0.023c0.018,0.017,0.027,0.025,0.027,0.025
			c0.017,0.018,0.026,0.028,0.026,0.028c0.017,0.02,0.025,0.031,0.025,0.031c0.008,0.011,0.016,0.022,0.016,0.022
			c0.135,0.199,0.187,0.408,0.238,0.631c0.077,0.359,0.114,0.746,0.145,1.112l0.179,2.727c0.162,2.188,0.675,4.389,1.772,6.304
			c0.289,0.493,0.62,0.976,1.039,1.368c0.283,0.261,0.647,0.509,1.033,0.51c0.015,0,0.031-0.001,0.031-0.001
			c0.015-0.001,0.03-0.002,0.03-0.002c0.322-0.029,0.568-0.203,0.814-0.38c0.352-0.256,0.742-0.621,1.183-0.676
			c0.249-0.031,0.471,0.049,0.677,0.155c0.228,0.12,0.439,0.278,0.638,0.441c0.596,0.491,1.266,1.209,1.88,1.678
			c0.304,0.23,0.657,0.462,1.035,0.527c0.51,0.084,0.978-0.173,1.393-0.436c0.381-0.235,0.831-0.592,1.266-0.694
			c0.219-0.052,0.425-0.039,0.634,0.011c0.219,0.053,0.429,0.147,0.628,0.252c0.839,0.464,1.694,1.116,2.552,1.545
			c1.199,0.621,2.519,0.997,3.836,1.275c2.064,0.425,4.207,0.598,6.312,0.606c2.136-0.001,4.311-0.17,6.406-0.596"/>
	</g>
	<g id="POLYLINE_250_">
		
			<path fill="none" stroke="#FB8604" stroke-width="2.75" stroke-linecap="round" stroke-linejoin="round" stroke-miterlimit="10" d="
			M836.856,232.469c-6.012,2.233-17.741,6.475-23.484,8.942c-0.692,0.239-1.418,0.392-2.15,0.437
			c-1.26,0.082-2.53-0.169-3.693-0.652c-1.308-0.541-2.497-1.352-3.569-2.269c-1.064-0.908-2.02-1.972-2.705-3.198
			c-0.535-0.952-0.9-2.004-1.056-3.085c-0.176-1.195-0.1-2.422,0.151-3.601c0.25-1.17,0.681-2.328,1.135-3.433
			c0.994-2.375,2.356-4.615,3.989-6.604c0.644-0.784,1.371-1.578,2.094-2.29c4.111-3.891,12.396-11.224,16.655-15.037"/>
	</g>
	<g id="POLYLINE_251_">
		
			<path fill="none" stroke="#FB8604" stroke-width="2.75" stroke-linecap="round" stroke-linejoin="round" stroke-miterlimit="10" d="
			M810.539,241.86c-0.488,1.014-0.93,2.076-1.185,3.175c-0.156,0.685-0.244,1.399-0.148,2.099c0.064,0.476,0.225,0.99,0.558,1.338
			c0.55,0.577,1.332,0.849,2.084,1.051c1.375,0.346,2.822,0.433,4.236,0.469c3.614,0.002,18.964,0.061,22.332-0.057
			c2.719-0.1,5.554-0.299,8.24-0.729c2.083-0.349,4.202-0.786,6.138-1.652c1.506-0.681,2.887-1.646,4.054-2.815
			c1.662-1.657,2.899-3.703,3.816-5.854c1.533-3.553,2.019-7.516,1.384-11.334c-0.7-4.488-2.653-8.877-6.037-11.978
			c-2.963-2.694-6.822-4.176-10.682-5.043"/>
	</g>
	<g id="POLYLINE_252_">
		
			<path fill="none" stroke="#FB8604" stroke-width="2.75" stroke-linecap="round" stroke-linejoin="round" stroke-miterlimit="10" d="
			M852.14,247.832l22.032,1.473c0.432,0.024,0.945,0.042,1.377,0.049c1.6,0.026,3.225-0.06,4.813-0.252
			c5.43-0.648,10.663-2.59,15.406-5.278"/>
	</g>
	<g id="POLYLINE_253_">
		
			<path fill="none" stroke="#FB8604" stroke-width="2.75" stroke-linecap="round" stroke-linejoin="round" stroke-miterlimit="10" d="
			M718.533,193.744c7.934,0.281,16.613,1.798,22.599,7.416c0.798,0.755,1.54,1.584,2.199,2.463c0.605,0.791,1.174,1.736,1.69,2.591
			c1.128,1.905,2.16,3.925,2.957,5.991c1,2.59,1.676,5.34,1.744,8.124c0.087,3.617-0.871,7.355-3.133,10.226
			c-1.114,1.425-2.524,2.616-4.07,3.548c-1.245,0.761-2.617,1.343-3.982,1.852c-5.951,2.242-12.275,3.609-18.566,4.466"/>
	</g>
	<g id="POLYLINE_254_">
		
			<path fill="none" stroke="#FB8604" stroke-width="2.75" stroke-linecap="round" stroke-linejoin="round" stroke-miterlimit="10" d="
			M743.586,233.403c6.595,0.134,13.72,0.291,20.272,0.991c2.639,0.289,5.307,0.757,7.835,1.581c0.989,0.328,1.984,0.719,2.892,1.233
			c0.634,0.361,1.245,0.788,1.745,1.322c1.418,1.513,2.182,3.524,2.535,5.543c0.195,1.127,0.331,2.33-0.062,3.43
			c-0.137,0.374-0.345,0.726-0.624,1.012c-0.27,0.279-0.603,0.494-0.96,0.644c-0.527,0.228-1.12,0.299-1.683,0.389
			c-1.8,0.264-3.737,0.359-5.559,0.416c-10.673,0.096-48.997,0.008-60.296,0.037c-7.293-0.02-14.758-0.308-21.958-1.524
			c-3.129-0.559-6.309-1.235-9.229-2.522c-3.511-1.525-6.641-3.96-8.877-7.077c-1.599-2.205-2.757-4.715-3.672-7.272
			c-1.967-5.605-2.69-11.597-2.865-17.511"/>
	</g>
	<g id="POLYLINE_255_">
		
			<path fill="none" stroke="#FB8604" stroke-width="2.75" stroke-linecap="round" stroke-linejoin="round" stroke-miterlimit="10" d="
			M675.549,244.404c-2.051,0.63-4.223,0.999-6.37,0.784c-1.496-0.148-2.969-0.602-4.266-1.366c-0.936-0.541-1.767-1.252-2.526-2.018
			c-1.076-1.076-2.036-2.293-2.893-3.55c-1.657-2.451-2.974-5.15-4.079-7.89c-1.406-3.423-2.359-7.087-2.37-10.805
			c-0.008-1.612,0.157-3.237,0.501-4.812c0.261-1.231,0.673-2.464,1.114-3.642c0.934-2.481,2.145-4.887,3.599-7.104
			c1.353-2.089,2.992-4.026,4.719-5.816c1.639-1.769,3.293-3.715,4.791-5.605c1.356-1.71,2.76-3.606,4.014-5.392
			c0.721-0.979,1.459-2.198,2.204-3.151c1.346-1.773,2.921-3.436,4.526-4.978c3.608-3.445,7.706-6.551,11.783-9.423
			c4.752-3.349,9.812-6.482,15.063-8.983c5.08-2.449,10.446-4.482,15.858-6.067c4.248-1.282,9.268-2.32,13.64-3.181
			c23.42-4.466,48.045-6.791,71.839-8.199c4.819-0.203,10.063-0.441,14.865,0.18c4.025,0.476,8.043,1.394,11.873,2.721
			c3.279,1.117,6.494,2.712,9.729,3.946c3.623,1.426,7.442,2.743,11.22,3.698c1.921,0.484,3.925,0.819,5.828,1.378
			c7.242,2.067,14.433,5.183,21.337,8.177"/>
	</g>
	<g id="POLYLINE_256_">
		
			<path fill="none" stroke="#FB8604" stroke-width="2.75" stroke-linecap="round" stroke-linejoin="round" stroke-miterlimit="10" d="
			M778.753,247.63c10.038,1.897,20.424,1.039,30.461-0.445"/>
	</g>
	<g id="POLYLINE_258_">
		
			<path fill="none" stroke="#FB8604" stroke-width="2.75" stroke-linecap="round" stroke-linejoin="round" stroke-miterlimit="10" d="
			M817.893,239.561c2.489,2.97,4.127,6.624,4.778,10.439"/>
	</g>
	<g id="POLYLINE_259_">
		
			<path fill="none" stroke="#FB8604" stroke-width="2.75" stroke-linecap="round" stroke-linejoin="round" stroke-miterlimit="10" d="
			M767.101,250c-0.954-2.346-1.469-4.992-0.804-7.483c0.341-1.289,0.953-2.499,1.706-3.595c0.823-1.193,1.823-2.268,2.95-3.179"/>
	</g>
</g>
<g id="AG-OUTLINE">
	<g id="POLYLINE_384_">
		
			<path fill="none" stroke="#FB8604" stroke-width="3.5" stroke-linecap="round" stroke-linejoin="round" stroke-miterlimit="10" d="
			M67.943,139.121c2.928,6.256,5.055,13.151,7.991,19.404c0.577,1.239,1.223,2.525,1.91,3.7c0.812,1.319,1.682,2.644,2.338,4.051
			c0.413,0.867,0.778,1.773,1.03,2.699c0.098,0.376,0.195,0.751,0.222,1.138c0.05,0.602-0.036,1.213-0.241,1.78
			c-0.274,0.765-0.746,1.447-1.294,2.042c-0.283,0.308-0.596,0.601-0.916,0.872c-0.483,0.41-1.04,0.914-1.496,1.354
			c-1.357,1.31-2.643,2.767-3.823,4.239c-0.543,0.696-1.138,1.416-1.589,2.172c-1.297,2.093-1.947,4.549-2.004,7.003
			c-0.035,0.97,0.065,2.036,0.095,3.009c0.074,2.091,0.047,4.279-0.042,6.369c-0.128,3.686-0.721,7.492-0.491,11.18
			c0.099,1.84,0.35,3.701,0.801,5.489c0.196,0.804,0.485,1.669,0.748,2.455c0.296,0.914,0.595,1.953,0.82,2.885
			c0.399,1.667,0.689,3.386,0.681,5.104c-0.1,2.512-0.082,5.123,0.142,7.629c0.063,0.717,0.168,1.451,0.359,2.147
			c0.221,0.794,0.555,1.593,1.161,2.171c0.209,0.198,0.453,0.36,0.711,0.488c0.278,0.137,0.585,0.226,0.897,0.222
			c0.278-0.003,0.552-0.083,0.793-0.22c0.221-0.131,0.425-0.295,0.582-0.466c0.266-0.304,0.561-0.669,0.964-0.744
			c0.019-0.003,0.028-0.005,0.028-0.005c0.018-0.003,0.028-0.004,0.028-0.004c0.018-0.002,0.028-0.003,0.028-0.003
			c0.018-0.001,0.028-0.002,0.028-0.002c0.018-0.001,0.028-0.001,0.028-0.001c0.018,0,0.028,0,0.028,0
			c0.018,0.001,0.028,0.001,0.028,0.001c0.018,0.001,0.028,0.002,0.028,0.002c0.018,0.002,0.027,0.003,0.027,0.003
			c0.018,0.003,0.027,0.004,0.027,0.004c0.018,0.003,0.027,0.005,0.027,0.005c0.018,0.004,0.027,0.006,0.027,0.006
			c0.289,0.077,0.511,0.292,0.682,0.503c0.202,0.251,0.364,0.536,0.506,0.823c0.832,1.691,1.591,3.511,2.267,5.27
			c0.577,1.485,1.286,2.956,2.329,4.173c0.283,0.326,0.592,0.64,0.955,0.878c0.591,0.397,1.274,0.643,1.966,0.799
			c0.701,0.158,1.432,0.226,2.15,0.247c0.325,0.005,6.815,0.017,7.188-0.003c0.546-0.029,1.096-0.129,1.596-0.356
			c0.408-0.184,0.777-0.457,1.064-0.801c0.29-0.344,0.492-0.755,0.633-1.18c0.283-0.849,0.516-1.799,0.249-2.681
			c-0.085-0.277-0.227-0.495-0.391-0.713c-0.204-0.274-0.447-0.555-0.676-0.81c-0.8-0.884-1.76-1.798-2.631-2.616
			c-0.219-0.203-0.442-0.433-0.642-0.655c-0.722-0.803-1.334-1.712-1.862-2.653c-1.849-3.366-2.833-7.159-3.7-10.878
			c-0.5-2.246-0.916-4.616-1.241-6.894c-0.37-2.602-0.484-5.269-0.251-7.889c0.22-2.315,0.658-4.653,1.49-6.831
			c0.544-1.366,1.282-2.661,2.11-3.874c1.221-1.785,2.677-3.447,4.194-4.985c0.91-0.918,1.932-1.875,2.901-2.73
			c6.315-5.443,18.596-15.436,25.083-20.769c1.568,1.559,3.422,2.875,5.52,3.609c1.136,0.407,2.339,0.64,3.535,0.787
			c2.792,0.345,6.018,0.223,8.84,0.205c0.694,0.006,1.431,0.009,2.118,0.105c0.227,0.034,0.458,0.078,0.672,0.164l0.023,0.01
			c0,0,0.023,0.01,0.023,0.01l0.022,0.01l0.021,0.011l0.021,0.011c0.02,0.011,0.039,0.022,0.039,0.022
			c0.019,0.011,0.037,0.023,0.037,0.023c0.017,0.012,0.034,0.024,0.034,0.024c0.016,0.012,0.031,0.025,0.031,0.025
			c0.014,0.013,0.028,0.026,0.028,0.026c0.013,0.013,0.025,0.027,0.025,0.027c0.012,0.014,0.023,0.028,0.023,0.028
			c0.01,0.014,0.02,0.029,0.02,0.029c0.009,0.015,0.017,0.03,0.017,0.03c0.007,0.016,0.014,0.031,0.014,0.031
			c0.006,0.016,0.011,0.032,0.011,0.032c0.004,0.017,0.008,0.034,0.008,0.034c0.003,0.017,0.004,0.027,0.004,0.027
			c0.002,0.019,0.002,0.028,0.002,0.028c0,0.019,0,0.029,0,0.029c-0.001,0.02-0.002,0.03-0.002,0.03
			c-0.002,0.02-0.004,0.031-0.004,0.031c-0.074,0.385-0.408,0.757-0.645,1.057c-0.356,0.426-0.885,1.004-1.184,1.464
			c-0.145,0.228-0.296,0.499-0.299,0.77c0,0.012,0,0.023,0,0.023c0.001,0.012,0.001,0.023,0.001,0.023
			c0.002,0.02,0.004,0.039,0.004,0.039c0.003,0.019,0.007,0.038,0.007,0.038c0.004,0.019,0.009,0.037,0.009,0.037
			c0.005,0.018,0.012,0.037,0.012,0.037c0.007,0.018,0.014,0.036,0.014,0.036c0.008,0.018,0.016,0.035,0.016,0.035
			c0.009,0.017,0.019,0.035,0.019,0.035c0.01,0.017,0.021,0.034,0.021,0.034c0.011,0.017,0.023,0.033,0.023,0.033
			c0.013,0.016,0.026,0.032,0.026,0.032c0.014,0.016,0.028,0.032,0.028,0.032c0.015,0.015,0.03,0.031,0.03,0.031
			c0.016,0.015,0.033,0.03,0.033,0.03c0.017,0.015,0.035,0.029,0.035,0.029c0.018,0.014,0.037,0.029,0.037,0.029
			c0.019,0.014,0.039,0.028,0.039,0.028c0.489,0.316,1.125,0.404,1.694,0.469c1.728,0.152,3.478-0.043,5.183-0.332
			c2.648-0.463,5.247-1.29,7.626-2.551c1.245-0.63,3.027-1.747,4.263-2.407c0.268-0.139,0.556-0.279,0.839-0.386
			c0.252-0.094,0.54-0.178,0.806-0.163c0.018,0.001,0.036,0.003,0.036,0.003c0.018,0.002,0.035,0.004,0.035,0.004
			c0.017,0.003,0.035,0.005,0.035,0.005c0.017,0.003,0.034,0.007,0.034,0.007c0.017,0.004,0.033,0.008,0.033,0.008
			c0.016,0.005,0.032,0.009,0.032,0.009c0.016,0.005,0.031,0.011,0.031,0.011c0.015,0.006,0.031,0.012,0.031,0.012
			c0.015,0.007,0.03,0.014,0.03,0.014c0.015,0.007,0.029,0.015,0.029,0.015c0.014,0.008,0.028,0.016,0.028,0.016
			c0.014,0.009,0.027,0.018,0.027,0.018c0.013,0.01,0.027,0.019,0.027,0.019c0.013,0.01,0.026,0.021,0.026,0.021
			c0.013,0.011,0.025,0.022,0.025,0.022c0.012,0.012,0.024,0.024,0.024,0.024c0.019,0.02,0.025,0.028,0.025,0.028
			c0.013,0.016,0.02,0.024,0.02,0.024c0.013,0.017,0.019,0.025,0.019,0.025c0.209,0.3,0.273,0.648,0.35,0.995
			c0.131,0.589,0.197,1.42,0.559,1.909c0.014,0.018,0.022,0.026,0.022,0.026c0.015,0.017,0.022,0.025,0.022,0.025
			c0.015,0.016,0.023,0.024,0.023,0.024c0.016,0.015,0.024,0.023,0.024,0.023c0.016,0.015,0.024,0.022,0.024,0.022
			c0.017,0.014,0.025,0.02,0.025,0.02c0.017,0.013,0.026,0.019,0.026,0.019c0.018,0.012,0.027,0.018,0.027,0.018
			c0.018,0.011,0.027,0.016,0.027,0.016c0.019,0.01,0.028,0.015,0.028,0.015c0.016,0.008,0.032,0.015,0.032,0.015
			c0.016,0.007,0.033,0.013,0.033,0.013c0.017,0.006,0.034,0.011,0.034,0.011c0.017,0.005,0.035,0.01,0.035,0.01
			c0.018,0.004,0.036,0.008,0.036,0.008c0.018,0.004,0.037,0.007,0.037,0.007c0.019,0.003,0.038,0.005,0.038,0.005
			c0.019,0.002,0.038,0.004,0.038,0.004c0.02,0.001,0.039,0.002,0.039,0.002c0.02,0,0.04,0.001,0.04,0.001
			c0.225-0.002,0.44-0.061,0.651-0.134c1.003-0.366,2.212-1.2,3.135-1.749c0.918-0.558,1.88-1.136,2.879-1.533
			c0.557-0.219,1.147-0.39,1.749-0.404c0.917-0.031,1.8,0.299,2.61,0.701l1.086,0.55c0.538,0.263,1.103,0.509,1.702,0.583
			c0.43,0.055,0.869,0.003,1.285-0.111c0.809-0.224,1.554-0.648,2.261-1.092c1.709-1.091,3.414-2.537,5.243-3.425
			c2.374-1.189,5.179-1.542,7.782-1.916c0.544,0.652,1.799,2.051,2.273,2.672c0.442,0.567,0.87,1.182,1.259,1.786
			c1.904,2.991,3.337,6.303,4.599,9.609c1.656,4.38,3.11,9.336,4.332,13.87c0.948,3.555,1.872,7.337,2.49,10.962
			c0.394,2.444,0.744,4.966,0.406,7.436c-0.387,3.946-0.316,7.971,0.023,11.918c0.116,1.18,0.253,2.421,0.503,3.581
			c0.16,0.73,0.349,1.475,0.666,2.154c0.162,0.347,0.369,0.69,0.654,0.948c0.431,0.365,0.979,0.582,1.542,0.605
			c0.815,0.033,1.579-0.318,2.257-0.736c0.305-0.168,0.665-0.299,1.016-0.294c0.389,0.002,0.738,0.156,1.027,0.399
			c0.404,0.339,0.688,0.8,0.921,1.268c0.986,2.225,2.433,5.773,3.476,7.977c0.217,0.428,0.461,0.854,0.733,1.251
			c0.462,0.675,1.019,1.299,1.695,1.766c0.424,0.293,0.895,0.522,1.392,0.66c0.914,0.237,1.895,0.326,2.834,0.421
			c2.364,0.207,4.925,0.229,7.299,0.221c1.603-0.036,3.255-0.08,4.829-0.403c0.581-0.129,1.183-0.284,1.677-0.629
			c0.327-0.241,0.537-0.579,0.635-0.962c0.102-0.417,0.047-0.855-0.074-1.262c-0.205-0.673-0.572-1.288-0.971-1.863
			c-1.18-1.655-2.732-3.033-4.307-4.305c-0.609-0.505-1.309-0.973-1.881-1.514c-0.727-0.663-1.388-1.417-1.963-2.215
			c-1.426-1.97-2.363-4.261-3.027-6.589c-0.497-1.686-0.955-3.49-1.319-5.21c-0.494-2.371-0.896-4.83-1.114-7.242
			c-0.381-4.732-0.18-9.725,0.051-14.468c0.414-7.176,1.001-14.527,3.028-21.45c1.185-4.026,3.253-8.25,7.198-10.166
			c1.464-0.665,3.207-1.239,4.755-1.676c1.31-0.353,2.664-0.623,4.026-0.594c1.552-0.036,2.974-0.844,4.058-1.916
			c0.38-0.362,0.711-0.783,1.072-1.163c0.448-0.468,0.941-0.904,1.489-1.251c0.507-0.321,1.072-0.568,1.667-0.666
			c0.21-0.035,0.425-0.052,0.638-0.05c0.042,0.005,0.099-0.001,0.142,0.004c0,0,0.035,0.002,0.035,0.002s0.035,0.002,0.035,0.002
			s0.035,0.003,0.035,0.003c0.082,0.004,0.183,0.019,0.251,0.015c0.318-0.007,0.576-0.061,0.868-0.167
			c0.806-0.301,1.505-0.836,2.151-1.393c1.471-1.288,2.697-2.848,3.916-4.368c0.986-1.18,2.056-2.338,3.315-3.231
			c0.673-0.47,1.419-0.876,2.234-1.024c0.284-0.051,0.578-0.068,0.865-0.04c0.299,0.031,0.596,0.109,0.897,0.131
			c0.618,0.059,1.255,0.015,1.846-0.186c0.485-0.163,0.933-0.433,1.31-0.778c0.197-0.18,0.375-0.377,0.538-0.588
			c0.179-0.243,0.355-0.496,0.557-0.721c0.691-0.784,1.504-1.47,2.314-2.125c1.916-1.536,4.1-2.983,6.154-4.329
			c0.286,0.44,0.632,0.859,1.079,1.142c0.319,0.204,0.691,0.315,1.066,0.346c0.518,0.043,1.039-0.045,1.539-0.176
			c1.594-0.428,3.498-1.499,4.994-2.21c0.616-0.289,1.259-0.578,1.909-0.778c0.391-0.119,0.797-0.212,1.206-0.223
			c0.585-0.027,1.136,0.204,1.571,0.575c0.663,0.543,1.144,1.367,1.764,1.953c0.311,0.294,0.696,0.505,1.124,0.467
			c0.3-0.02,0.59-0.121,0.862-0.245c0.554-0.257,1.069-0.62,1.563-0.976c1.53-1.11,3.111-2.522,4.939-3.093
			c1.015-0.311,2.095-0.337,3.148-0.279c1.127,0.061,2.592,0.249,3.701,0.059c1.782-0.287,3.237-1.672,4.65-2.697
			c1.214-0.909,2.516-1.666,4.014-1.983c2.541-0.571,5.699-0.38,8.278-0.696c1.263-0.147,2.53-0.408,3.706-0.902
			c1.751-0.729,3.307-1.904,4.548-3.334c0.675-0.302,1.258-0.781,1.761-1.316c0.823-0.881,1.474-1.933,2.079-2.973l1.43-2.555
			c0.716-1.293,1.833-2.893,2.251-4.307c0.094-0.343,0.147-0.713,0.083-1.066c-0.087-0.491-0.396-0.897-0.76-1.201
			c-0.51-0.424-1.128-0.704-1.75-0.924c-0.702-0.241-1.443-0.406-2.188-0.408c-0.439,0.002-0.893,0.062-1.286,0.27
			c-1.212-2.671-3.007-5.056-5.077-7.122c-3.073-3.075-6.814-5.44-10.766-7.219c-4.574-2.088-10.138-4.097-13.906-7.49
			c-2.109-1.875-3.852-4.164-5.462-6.471l-3.071-4.516c-0.958-1.386-2.023-2.783-3.17-4.016l-2.666-2.82
			c-0.927-1.012-1.804-2.097-2.459-3.308c-1.098-2.04-1.724-4.633-2.461-6.827c-0.509-1.542-1.105-3.086-1.886-4.512
			c-0.638-1.176-1.429-2.285-2.303-3.298c-1.974-2.279-4.367-4.185-6.912-5.788c-2.568-1.599-5.343-2.94-8.254-3.782
			c-1.766-0.508-3.617-0.813-5.452-0.904c-1.878-0.098-3.8,0.021-5.669,0.212c-6.655-3.407-18.794-6.928-22.038,2.513
			c-4.166-0.534-8.674-0.941-12.867-1.156c-3.219-0.15-6.62-0.283-9.825-0.076c-3.035,0.175-6.186,0.565-9.178,1.103
			c-2.66,0.477-5.855,1.244-8.525,1.771c-5.019,1.011-11.934,2.208-16.998,2.992c-3.397,0.533-6.881,1.213-10.176,2.184
			c-2.145,0.635-4.292,1.408-6.289,2.42c-1.238,0.613-2.395,1.429-3.606,2.094c-3.398,1.911-7.14,3.269-11.018,3.751
			c-4.779,0.621-9.924,0.762-14.747,0.874c-4.341,0.035-8.874,0.108-13.155,0.821c-3.005,0.481-6.018,1.223-8.849,2.348
			c-1.619,0.621-3.241,1.519-4.806,2.271c-3.119,1.504-6.456,2.913-9.685,4.163c-3.601,1.413-7.857,2.806-11.492,4.11
			c-2.803,1.042-5.641,2.24-8.292,3.625c-3.729,1.935-7.272,4.36-10.095,7.497c-2.357,2.584-4.266,5.592-5.706,8.775
			c-1.022,2.238-1.825,4.601-2.294,7.018c-0.792,3.982-0.836,8.111-0.436,12.142c0.42,3.78,1.122,7.844,1.884,11.57
			c-1.6,1.897-3.192,3.879-4.372,6.071c-0.926,1.71-1.598,3.578-1.859,5.509c-0.473,3.518,0.368,7.259,0.83,10.743
			c0.125,0.979,0.247,1.996,0.2,2.984c-0.024,0.423-0.079,0.854-0.234,1.251c-0.142,0.367-0.389,0.692-0.704,0.928
			c-0.468,0.353-1.039,0.538-1.594,0.703l-1.653,0.457c-1.725,0.515-3.438,1.212-4.871,2.323c-0.915,0.712-1.698,1.624-2.142,2.702
			c-0.488,1.171-0.623,2.464-0.562,3.724c0.1,1.867,0.619,3.706,1.41,5.395c0.782,1.639,1.829,3.185,3.199,4.388
			c0.308,0.261,0.638,0.508,1.002,0.684c0.255,0.123,0.555,0.22,0.829,0.176c0.014-0.002,0.027-0.005,0.027-0.005
			c0.013-0.003,0.027-0.006,0.027-0.006c0.013-0.003,0.026-0.007,0.026-0.007c0.013-0.004,0.026-0.008,0.026-0.008
			c0.013-0.004,0.025-0.009,0.025-0.009c0.012-0.005,0.025-0.01,0.025-0.01c0.012-0.005,0.024-0.011,0.024-0.011
			c0.012-0.006,0.024-0.012,0.024-0.012c0.012-0.006,0.023-0.012,0.023-0.012c0.012-0.007,0.023-0.013,0.023-0.013
			c0.011-0.007,0.023-0.014,0.023-0.014c0.011-0.008,0.022-0.015,0.022-0.015c0.011-0.008,0.022-0.016,0.022-0.016
			c0.011-0.009,0.021-0.017,0.021-0.017c0.021-0.018,0.031-0.028,0.031-0.028c0.02-0.02,0.029-0.03,0.029-0.03
			c0.01-0.011,0.019-0.022,0.019-0.022c0.009-0.011,0.019-0.023,0.019-0.023c0.009-0.012,0.018-0.024,0.018-0.024
			c0.012-0.017,0.024-0.034,0.024-0.034c0.012-0.018,0.023-0.036,0.023-0.036c0.011-0.019,0.022-0.038,0.022-0.038
			c0.011-0.02,0.021-0.04,0.021-0.04s0.01-0.021,0.01-0.021c0.116-0.249,0.166-0.525,0.202-0.795
			c0.067-0.547,0.063-1.123,0.054-1.674c-0.044-2.035-0.295-4.388,0.08-6.389c0.132-0.637,0.341-1.291,0.79-1.778
			c0.329-0.358,0.773-0.591,1.234-0.73c0.802-0.238,1.657-0.254,2.488-0.253c0,0,1.956,0.035,1.956,0.035
			c1.067-0.001,2.181-0.028,3.174-0.459c0.481-0.212,0.909-0.536,1.259-0.927c1.143-1.304,1.522-3.123,1.668-4.807
			c0.242-3.066-0.379-6.14-1.372-9.031c-0.721-2.209-1.846-4.792-1.946-7.124C65.176,143.925,66.53,141.391,67.943,139.121z"/>
	</g>
	<g id="POLYLINE_385_">
		
			<path fill="none" stroke="#FB8604" stroke-width="3.5" stroke-linecap="round" stroke-linejoin="round" stroke-miterlimit="10" d="
			M537.435,59.657c-4.939-1.367-10.124-2.684-15.171-3.572c-3.208-0.554-6.492-0.998-9.751-1.023
			c-6.052,0.062-12.147,1.15-18.078,2.29c-3.491,0.671-7.727,1.706-11.184,2.426c-3.922,0.822-8.092,1.526-12.071,1.98
			c-2.419,0.254-4.971,0.474-7.397,0.509c-1.508,0.048-3.097-0.05-4.604-0.01c-3.141,0.078-6.286,0.552-9.297,1.45
			c-3.257,0.948-6.377,2.447-9.264,4.221c-2.675,1.606-5.444,3.399-8.01,5.173c-3.903,2.767-8.146,5.797-11.746,8.94
			c-2.312,2.063-4.476,4.374-6.403,6.8c-2.209,2.779-4.193,5.805-5.913,8.91c-0.985,1.792-1.937,3.648-2.713,5.537
			c-4.04,9.858-5.405,20.637-6.046,31.204c-0.652,10.495-1.216,22.485-2.663,32.85c-0.513,3.545-1.215,7.488-1.943,10.995
			c-0.602,2.938-1.422,6.159-1.94,9.106c-0.835,4.607-1.376,9.375-1.688,14.046c-0.264,4.842-0.755,9.789-2.527,14.34
			c-0.352,0.891-0.766,1.778-1.243,2.609c-0.542,0.926-1.223,1.886-1.781,2.803c-0.721,1.168-1.459,2.424-2.044,3.667
			c-0.319,0.689-0.624,1.41-0.793,2.153c-0.397,1.862,0.25,3.768,1.019,5.451c0.393,0.815,0.827,1.636,1.167,2.475
			c0.557,1.338,0.991,2.742,1.239,4.171c0.165,0.981,0.232,1.996,0.427,2.972c0.303,1.632,0.775,3.249,1.4,4.787
			c0.276,0.66,0.665,1.282,1.186,1.777c0.447,0.428,0.99,0.754,1.572,0.963c0.477,0.173,0.983,0.27,1.488,0.314
			c0.217,0.017,0.451,0.029,0.669,0.028c0,0,7.001,0,7.001,0c0.755,0.006,1.544-0.188,2.118-0.7c0.984-0.883,1.176-2.316,1.2-3.572
			c0.015-1.893-0.245-3.804-0.821-5.61c-0.312-1.012-0.763-1.987-1.239-2.931c-0.282-0.623-0.481-1.293-0.636-1.958
			c-0.539-2.415-0.618-4.932-0.618-7.399c0.037-3.41,0.232-6.904,0.75-10.275c0.682-4.48,1.909-8.908,3.689-13.078
			c1.411-3.33,3.231-6.518,5.254-9.513c2.227-3.302,4.814-6.525,7.449-9.513c4.537-5.032,9.438-10,13.011-15.794
			c1.309,2.327,3.084,4.375,5.008,6.214c1.329,1.257,2.708,2.528,4.288,3.464c0.672,0.382,1.407,0.732,2.193,0.754
			c0.453,0.011,0.879-0.141,1.28-0.334c0.459-0.206,0.98-0.583,1.501-0.484c0.29,0.067,0.508,0.243,0.715,0.421
			c0.237,0.208,0.649,0.652,0.874,0.883c0.383,0.389,0.796,0.767,1.29,1.009c0.681,0.331,1.454,0.406,2.201,0.45l1.196,0.048
			c-0.954,4.534-1.993,9.343-3.433,13.736c-0.409,1.22-0.875,2.444-1.491,3.574c-0.471,0.933-0.802,1.944-0.96,2.977
			c-0.254,1.63-0.079,3.309,0.373,4.889c0.194,0.704,0.488,1.419,0.703,2.118c1.288,4.244,1.885,8.823,2.431,13.219
			c0.422,3.747,0.896,8.715,1.168,12.466c0.143,2.136,0.295,4.532,0.24,6.666c-0.023,0.719-0.019,1.466,0.028,2.183
			c0.076,1.11,0.242,2.237,0.651,3.277c0.203,0.504,0.452,1.009,0.857,1.382c0.51,0.482,1.166,0.778,1.831,0.979
			c1.232,0.363,2.538,0.443,3.816,0.449c0,0,9.001,0,9.001,0c0.194-0.002,0.414-0.005,0.609-0.02
			c0.506-0.036,1.018-0.117,1.498-0.284c0.685-0.231,1.313-0.677,1.672-1.314c0.344-0.591,0.45-1.285,0.461-1.96
			c0.026-0.923-0.073-1.853-0.306-2.747c-0.182-0.7-0.446-1.382-0.777-2.024c-0.291-0.593-0.94-1.527-1.313-2.091
			c-1.131-1.687-2.526-3.596-3.716-5.24c-0.294-0.446-0.544-0.934-0.76-1.421c-0.937-2.165-1.448-4.514-1.888-6.823
			c-0.688-3.893-1.188-7.937-1.361-11.886c-0.096-2.851-0.054-5.772,0.641-8.553c0.21-0.811,0.489-1.621,0.876-2.366
			c0.483-0.938,0.97-2.014,1.389-2.984c2.191-5.122,4.499-11.659,6.38-16.94c1.514,0.035,2.949,0.639,4.308,1.259
			c1.992,0.904,4.246,2.251,6.463,2.4c1.151,0.072,2.302-0.207,3.352-0.668c1.764-0.777,3.296-2.011,4.745-3.263
			c2.696,5.672,4.406,11.995,6.166,18.01c1.557,5.815,3.263,11.833,3.801,17.843c0.127,1.58,0.166,3.2,0.01,4.779
			c-0.136,1.278-0.444,2.604-0.592,3.883c-0.407,3.073-0.5,6.241-0.379,9.339c0.048,1.2,0.107,2.466,0.268,3.656
			c0.08,0.509,0.161,1.162,0.423,1.6c0.376,0.59,1.128,0.634,1.748,0.544c0.457-0.053,0.89-0.231,1.345-0.294
			c0.445-0.064,0.956-0.012,1.325,0.257c0.294,0.211,0.476,0.483,0.614,0.797c0.041,0.096,0.079,0.195,0.11,0.294
			c0.442,1.371,0.995,2.824,1.557,4.151c0.102,0.222,0.223,0.442,0.365,0.641c0.32,0.458,0.762,0.831,1.271,1.063
			c0.553,0.256,1.169,0.355,1.775,0.363c0,0,0.082,0.001,0.082,0.001h7.151c1.296-0.01,2.627-0.066,3.872-0.457
			c0.506-0.167,1.012-0.402,1.38-0.797c0.199-0.214,0.337-0.478,0.447-0.747c0.317-0.787,0.292-1.667,0.112-2.484
			c-0.395-1.756-1.357-3.348-2.57-4.662c-0.591-0.663-1.151-1.041-1.652-1.72c-0.602-0.802-1.053-1.718-1.44-2.64
			c-0.708-1.712-1.214-3.548-1.642-5.349c-0.922-4.097-1.731-8.339-1.982-12.535c-0.126-2.586-0.132-5.347-0.034-7.935
			c0.045-1.348,0.191-2.907,0.186-4.254c-0.002-3.149-0.393-6.342-0.895-9.447c-0.586-3.383-1.843-10.429-2.485-13.779
			c-0.093-0.54-0.159-1.102-0.186-1.65c-0.049-0.989,0.024-1.995,0.27-2.956c0.506-1.977,1.79-3.811,3.619-4.764
			c1.543-0.802,3.362-0.87,5.048-0.577c2.742,4.889,5.678,9.817,9.307,14.106c1.033,1.231,2.053,2.175,3.18,3.277
			c0.968,0.987,1.886,2.052,2.627,3.221c0.826,1.305,1.462,2.796,1.479,4.361c0.006,2.352-0.722,4.654-1.761,6.744
			c-0.42,0.832-0.883,1.673-1.416,2.438c-0.573,0.817-1.245,1.578-1.973,2.261c-1.527,1.431-3.325,2.563-5.201,3.478
			c-0.818,0.403-1.702,0.747-2.512,1.166c-1.225,0.629-2.416,1.38-3.379,2.374c-0.78,0.803-1.39,1.807-1.58,2.921
			c-0.114,0.648-0.071,1.327-0.048,1.981c0.057,0.999,0.192,2.012,0.533,2.957c0.26,0.708,0.646,1.4,1.245,1.875
			c0.511,0.405,1.131,0.653,1.757,0.818c1.003,0.259,2.056,0.322,3.088,0.319c2.906-0.018,5.778-0.702,8.516-1.636
			c1.695-0.594,3.452-1.225,4.894-2.323c1.649-1.211,2.896-2.936,3.588-4.857c0.379-0.985,0.541-2.041,0.832-3.052
			c0.734-2.598,1.98-5.051,3.536-7.251c0.566-0.801,1.21-1.617,1.851-2.358c0.527-0.592,1.062-1.223,1.513-1.875
			c1.459-2.067,2.401-4.486,2.787-6.983c0.167-1.063,0.243-2.155,0.239-3.231c0-1.597-0.226-3.662-0.334-5.259
			c-0.225-2.596-0.533-5.509-0.929-8.083c-0.177-1.127-0.402-2.387-0.554-3.518c-0.55-4.064-0.862-8.439-1.085-12.536
			c5.387-5.269,11.489-9.889,17.82-13.962c0.769,0.409,1.573,0.839,2.397,1.123c0.51,0.176,1.047,0.295,1.589,0.279
			c0.881-0.013,1.776-0.367,2.603-0.645c0.565-0.184,1.168-0.344,1.765-0.244c0.415,0.069,0.786,0.255,1.139,0.474
			c0.632,0.391,1.463,1.127,2.047,1.599c0.7,0.556,1.45,1.12,2.337,1.325c0.464,0.106,0.949,0.075,1.411-0.028
			c1.302-0.296,2.593-1.115,3.838-1.576c0.53-0.195,1.092-0.349,1.661-0.329c0.988,0.04,1.862,0.587,2.653,1.136
			c1.015,0.709,2.094,1.635,3.284,2.027c1.993,0.641,4.11,0.012,6.019-0.635c1.549,1.885,4.124,2.481,6.467,2.454
			c2.822-0.047,5.694-0.897,7.921-2.667c1.094-0.873,2.005-1.983,2.621-3.241c0.885-1.821,1.207-3.901,1.034-5.912
			c-0.139-1.45-0.553-2.934-1.485-4.081c-0.865-1.057-2.161-1.727-3.511-1.894c-0.38-0.582-1.352-1.703-1.816-2.262
			c-0.493-0.593-1.013-1.288-1.46-1.92c-3.56-5.095-6.56-11.341-10.518-16.151c-3.524-4.389-8.629-7.921-11.077-13.114
			c-1.798-3.78-2.328-8.071-2.013-12.217c0.218-3.28,1.342-7.034,1.701-10.297c1.011-1.62,2.022-3.314,2.721-5.093
			c0.515-1.294,0.88-2.656,1.058-4.037c0.444-3.411,0.027-7.547,0.054-10.986c-0.004-1.265,0.133-3.098,0.234-4.376
			c0.032-0.543,0.056-1.112,0.022-1.655c-0.032-0.48-0.106-0.973-0.308-1.414c-0.18-0.404-0.489-0.734-0.861-0.93
			c-0.667-0.346-1.445-0.389-2.184-0.376c-1.843,0.069-3.653,0.558-5.393,1.145c-1.544,0.538-3.076,1.198-4.498,2.003
			c-1.084,0.615-2.124,1.341-2.985,2.247c-1.208,1.228-1.975,2.887-2.716,4.422c-1.804-1.24-3.728-2.358-5.787-3.119
			c-3.983-1.453-8.319-1.835-12.527-1.491c-1.31-1.277-2.852-2.321-4.491-3.13c-1.442-0.707-2.984-1.25-4.567-1.53
			c-0.826-0.142-1.674-0.215-2.511-0.15c-0.559,0.046-1.123,0.153-1.639,0.38c-0.493,0.215-0.928,0.556-1.257,0.981
			C537.951,57.563,537.669,58.629,537.435,59.657z"/>
	</g>
	<g id="POLYLINE_386_">
		
			<path fill="none" stroke="#FB8604" stroke-width="3.5" stroke-linecap="round" stroke-linejoin="round" stroke-miterlimit="10" d="
			M675.549,244.404c2.449,1.537,5.21,2.548,8.015,3.215c2.875,0.704,5.909,1.18,8.851,1.524c5.662,0.645,11.569,0.852,17.266,0.857
			c15.714-0.032,44.562,0.063,60.296-0.037c1.31-0.041,2.832-0.109,4.136-0.243c0.724-0.075,1.538-0.175,2.254-0.312
			c0.295-0.056,0.589-0.138,0.865-0.257c0.683-0.284,1.242-0.826,1.52-1.522c10.038,1.897,20.424,1.039,30.461-0.445
			c0.062,0.396,0.187,0.828,0.432,1.146c0.238,0.311,0.549,0.527,0.888,0.709c0.45,0.236,0.943,0.393,1.435,0.514
			c2.852,0.696,7.723,0.378,10.702,0.447c6.675-0.07,16.479,0.303,23.02-0.65c2.178-0.314,4.388-0.73,6.449-1.518l22.032,1.473
			c0.432,0.024,0.945,0.042,1.377,0.049c1.6,0.026,3.225-0.06,4.813-0.252c5.43-0.648,10.663-2.59,15.406-5.278
			c0.286,0.501,0.613,0.99,1.026,1.396c0.279,0.27,0.634,0.533,1.02,0.567c0.372,0.03,0.673-0.178,0.952-0.379
			c0.352-0.256,0.742-0.621,1.183-0.676c0.249-0.031,0.471,0.049,0.677,0.155c0.228,0.12,0.439,0.278,0.638,0.441
			c0.596,0.491,1.266,1.209,1.88,1.678c0.304,0.23,0.657,0.462,1.035,0.527c0.51,0.084,0.978-0.173,1.393-0.436
			c0.381-0.235,0.831-0.592,1.266-0.694c0.219-0.052,0.425-0.039,0.634,0.011c0.219,0.053,0.429,0.147,0.628,0.252
			c0.839,0.464,1.694,1.116,2.552,1.545c1.199,0.621,2.519,0.997,3.836,1.275c2.064,0.425,4.207,0.598,6.312,0.606
			c2.136-0.001,4.311-0.17,6.406-0.596c0.377,0.269,0.833,0.405,1.289,0.464c0.188,0.024,0.386,0.037,0.576,0.039
			c3.38-0.002,10.14,0.002,13.496,0c0.233,0,0.469-0.023,0.695-0.08c0.433-0.105,0.829-0.357,1.096-0.714
			c0.344-0.453,0.5-1.02,0.576-1.576c0.095-0.681,0.079-1.378-0.15-2.033c-0.246-0.733-0.699-1.382-1.229-1.938
			c-0.806-0.84-1.787-1.5-2.798-2.069c-1.354-0.751-2.789-1.417-4.304-1.763c-0.181-2.879-0.719-5.775-1.884-8.427
			c-1.133-2.585-2.811-4.922-4.548-7.133c-3.058-3.867-7.115-8.229-9.809-12.343c-0.868-1.342-1.682-2.758-2.198-4.276
			c-0.276-0.815-0.449-1.674-0.437-2.537c0.007-1.065,0.273-2.115,0.596-3.124c0.352-1.099,0.882-2.529,1.133-3.636
			c0.161-0.674,0.279-1.375,0.358-2.064c0.225-1.978,0.172-4.004-0.065-5.979c-0.275-2.226-0.796-4.451-1.594-6.549
			c-1.613-4.275-4.488-7.991-7.906-10.987c0.681-7.463-0.725-15.524-5.57-21.444c-1.183-1.434-2.55-2.762-4.166-3.699
			c-0.909-0.518-1.924-0.918-2.982-0.938c-0.886-0.023-1.75,0.297-2.483,0.78c-0.737,0.481-1.377,1.105-1.968,1.753
			c-1.241,1.381-2.425,3.073-3.684,4.438c-1.296,1.435-3.222,3.365-4.411,4.874c-1.202,1.489-2.32,3.119-3.291,4.768
			c-6.927-2.99-14.089-6.109-21.337-8.177c-1.908-0.558-3.903-0.896-5.828-1.378c-3.781-0.953-7.591-2.274-11.22-3.698
			c-3.243-1.231-6.448-2.829-9.729-3.946c-3.831-1.326-7.846-2.246-11.872-2.721c-4.817-0.612-10.011-0.391-14.865-0.179
			c-23.799,1.411-48.415,3.733-71.839,8.199c-4.394,0.861-9.385,1.903-13.64,3.181c-5.412,1.586-10.778,3.617-15.858,6.067
			c-5.25,2.501-10.312,5.632-15.063,8.983c-4.077,2.875-8.174,5.977-11.783,9.423c-1.604,1.543-3.18,3.204-4.526,4.978
			c-0.745,0.952-1.493,2.169-2.204,3.151c-1.251,1.787-2.661,3.681-4.014,5.392c-1.496,1.89-3.154,3.835-4.791,5.605
			c-1.724,1.79-3.366,3.727-4.718,5.816c-1.453,2.217-2.667,4.623-3.599,7.104c-0.438,1.178-0.854,2.411-1.114,3.642
			c-0.344,1.575-0.51,3.2-0.501,4.812c0.011,3.718,0.963,7.382,2.37,10.805c1.105,2.74,2.421,5.439,4.079,7.89
			c0.896,1.313,1.901,2.581,3.037,3.694c0.74,0.733,1.554,1.408,2.464,1.922c1.335,0.77,2.849,1.212,4.383,1.337
			C671.462,245.379,673.561,245.015,675.549,244.404z"/>
	</g>
</g>
</svg>
